<svg width="56" height="19" viewBox="0 0 56 19" fill="none" xmlns="http://www.w3.org/2000/svg">
<path d="M46.5898 6.68549C45.1488 5.61288 43.8582 4.33494 42.4142 3.26826C41.2964 2.4425 40.1148 1.6234 38.8391 1.11341C36.6324 0.229082 34.393 0.52929 32.3775 1.76943C31.0084 2.61224 29.7609 3.66187 28.4911 4.66258C28.3124 4.8012 28.1797 4.8768 28.0441 4.87162C27.9092 4.8768 27.7758 4.8012 27.5971 4.66258C26.3273 3.66187 25.0798 2.61224 23.7107 1.76943C21.6966 0.52929 19.4561 0.229082 17.249 1.11341C15.9735 1.6234 14.792 2.4425 13.6744 3.26826C12.2299 4.33494 10.9394 5.61288 9.49869 6.68549C6.36551 9.02122 3.75641 8.85739 0.814779 6.25037C0.572534 6.0354 0.33021 5.82043 0.0878906 5.60769C0.525533 8.06053 1.47035 10.2613 2.86415 12.2583C4.64296 14.806 6.97595 16.6318 9.90438 17.634C16.7493 19.9771 25.3955 16.7118 28.0441 10.5482C30.6926 16.7118 39.3387 19.9771 46.1836 17.634C49.1123 16.6318 51.4451 14.806 53.2241 12.2583C54.6177 10.2613 55.5628 8.06053 56.0001 5.60769C55.7577 5.82043 55.5161 6.0354 55.2737 6.25037C52.3316 8.85739 49.7231 9.02122 46.5898 6.68549Z" fill="#0D0D0D"/>
</svg>
