<svg width="1440" height="25" viewBox="0 0 1440 25" fill="none" xmlns="http://www.w3.org/2000/svg">
<mask id="mask0_84_3710" style="mask-type:alpha" maskUnits="userSpaceOnUse" x="0" y="0" width="1440" height="25">
<rect width="1440" height="25" fill="#D9D9D9"/>
</mask>
<g mask="url(#mask0_84_3710)">
<path d="M1505.9 54.1797C1506.56 53.6571 1506.87 52.8783 1506.88 51.8637C1506.71 51.619 1506.58 51.2411 1506.39 51.047C1506.58 51.2411 1506.71 51.619 1506.88 51.8637C1506.87 52.8783 1506.56 53.6571 1505.9 54.1797ZM1495.19 54.1079C1495.41 53.9248 1495.61 53.7403 1495.81 53.5691C1495.61 53.7403 1495.41 53.9248 1495.19 54.1079ZM1488.48 56.6983C1488.21 56.5305 1487.95 56.3067 1487.71 56.0123C1486.44 56.1483 1485.19 56.2751 1483.92 56.3817C1485.19 56.2751 1486.44 56.1483 1487.71 56.0123C1487.95 56.3067 1488.21 56.5305 1488.48 56.6983C1488.74 56.8661 1489.04 56.9793 1489.33 57.0552C1489.04 56.9793 1488.74 56.8661 1488.48 56.6983ZM1421.17 18.3371C1419.48 18.4166 1417.78 18.5521 1416.09 18.5997C1417.78 18.5521 1419.48 18.4166 1421.17 18.3371C1422.22 18.3402 1423.28 18.3566 1424.32 18.3623C1423.28 18.3566 1422.22 18.3402 1421.17 18.3371ZM1380.81 55.4794C1380.12 55.6698 1379.53 56.2553 1378.9 56.6607C1374.49 57.3367 1370.09 57.3529 1365.62 57.2621C1357.39 57.0941 1349.17 57.4368 1340.94 57.5888C1340.79 57.5908 1340.64 57.8676 1340.48 58.0162C1339.03 58.6994 1337.61 60.1268 1335.99 58.3693C1335.02 57.3132 1333.75 57.2705 1332.49 57.2025C1330.37 57.0883 1328.23 56.8406 1326.13 56.9504C1312.11 57.6847 1298.1 57.175 1284.09 57.264C1282.41 57.2742 1280.72 57.5219 1279.03 57.6601C1271.43 57.708 1263.83 57.7453 1256.22 57.8079C1253.49 57.8298 1250.74 57.6501 1248.09 58.5683C1238.52 58.412 1228.96 58.2998 1219.39 58.0795C1215.79 57.9963 1212.19 57.6811 1208.59 57.4126C1208.28 57.39 1207.89 56.9777 1207.73 56.6517C1207.41 56.005 1207.69 55.3182 1208.24 55.0178C1209.72 54.1947 1211.43 53.7166 1212.76 52.7235C1216.97 49.6052 1221.54 48.8605 1226.6 49.8591C1228.88 50.3074 1231.25 50.2653 1233.57 50.5031C1234.62 50.6102 1236.1 50.4831 1236.62 51.104C1239.2 54.1909 1242.15 53.0526 1245.33 52.57C1250.95 51.7177 1256.65 51.3257 1262.32 50.8189C1263.57 50.7068 1264.99 50.5954 1266.11 51.0442C1268.23 51.8958 1270.11 51.6051 1272.21 51.0325C1273.58 50.661 1275.26 50.7081 1276.61 51.1631C1279.19 52.0379 1281.55 52.2159 1283.9 50.6485C1284.7 50.1118 1285.5 50.8312 1286.26 50.8331C1289.61 50.8405 1293 51.5935 1296.3 50.3807C1297.32 50.0077 1298.45 49.8484 1299.21 50.8703C1300.23 52.2746 1301.15 52.2318 1302.18 50.9428C1302.84 50.1389 1303.69 50.2251 1304.46 50.6444C1308.03 52.5608 1311.87 52.2636 1315.69 52.2664C1317.6 52.2664 1319.78 51.8582 1321.36 52.6129C1324.42 54.0725 1327.65 52.0781 1330.6 53.6145C1331.47 54.0729 1332.14 53.2517 1332.83 52.7919C1334.9 51.3886 1337.15 51.3342 1339.56 51.6176C1343.14 52.0407 1346.75 52.1092 1350.32 52.6163C1352.76 52.9652 1355.32 52.6627 1357.63 54.2138C1359.52 55.4857 1361.67 55.3201 1363.46 53.5437C1364.44 52.5664 1365.79 52.3401 1367.03 52.5626C1372.26 53.4967 1377.52 52.0642 1382.75 52.9288C1382.63 54.1857 1382.19 55.1052 1380.81 55.4794V55.4794ZM1056.53 9.24238C1055.49 9.20599 1054.45 9.15626 1053.4 9.1372C1054.45 9.15626 1055.49 9.20599 1056.53 9.24238C1057.06 8.87393 1057.45 8.59689 1057.78 8.41826C1057.45 8.59689 1057.06 8.87393 1056.53 9.24238ZM975.887 8.94135C975.986 8.79643 976.087 8.66881 976.187 8.55856C976.087 8.66881 975.986 8.79643 975.887 8.94135ZM965.549 9.06714C965.293 9.01673 965.033 8.96496 964.776 8.92788C965.033 8.96496 965.293 9.01673 965.549 9.06714C966.127 8.5789 966.712 8.22936 967.303 7.99717C966.712 8.22936 966.127 8.5789 965.549 9.06714ZM950.901 11.4868C950.761 11.4515 950.82 11.1531 950.901 11.4868V11.4868ZM901.776 8.78249C902.551 8.67509 903.325 8.56768 904.1 8.45894C903.325 8.56768 902.551 8.67509 901.776 8.78249ZM898.441 7.58712C897.816 7.80049 897.192 8.11919 896.568 8.54056C897.191 8.11918 897.816 7.80049 898.441 7.58712C899.066 7.37242 899.693 7.26305 900.321 7.25636C899.693 7.26305 899.066 7.37242 898.441 7.58712ZM892.609 8.3412C892.384 8.10292 892.134 7.9432 891.869 7.83275C892.134 7.9432 892.384 8.10292 892.61 8.34121C893.822 8.40231 895.035 8.46339 896.247 8.5245C895.035 8.46339 893.822 8.40231 892.609 8.3412V8.3412ZM826.007 11.474C825.272 11.3043 824.535 11.1332 823.798 10.9621C824.535 11.1318 825.272 11.3029 826.007 11.474ZM608.155 11.5897C608.193 11.3565 608.158 11.1377 608.054 10.9519C608.158 11.1377 608.193 11.3565 608.155 11.5897ZM-192.132 50.0763C-192.284 49.8623 -192.418 49.5378 -192.578 49.3731C-192.418 49.5378 -192.283 49.8624 -192.131 50.075C-192.132 50.075 -192.132 50.075 -192.132 50.0763ZM-258.965 13.8585C-258.681 13.6583 -258.44 13.3834 -258.261 12.9988C-258.661 12.8678 -259.06 12.7767 -259.457 12.7204C-259.059 12.7767 -258.661 12.8678 -258.261 12.9988C-258.44 13.3834 -258.681 13.6583 -258.965 13.8585ZM-272.35 14.0594C-272.911 14.2544 -273.52 14.3078 -274.258 14.4461C-274.651 14.1617 -275.113 13.8291 -275.574 13.4965C-275.068 13.224 -274.585 12.8727 -274.044 12.7056C-273.692 12.5964 -273.256 12.7476 -272.86 12.7986C-272.662 12.8234 -272.45 12.851 -272.278 12.9424C-272.109 13.0325 -271.84 13.2602 -271.867 13.3335C-271.968 13.605 -272.124 13.9804 -272.35 14.0594V14.0594ZM1659.9 10.7119C1658.76 11.5152 1657.62 11.4437 1656.49 10.6749C1654.15 11.3331 1651.8 10.9858 1649.46 10.632C1647.41 11.854 1645.04 11.4814 1642.84 11.9201C1640.35 13.8297 1637.55 12.1644 1634.92 12.58C1633.69 12.7749 1633.01 13.292 1633.74 14.6951C1634.12 15.4274 1634.41 16.4793 1633.09 16.5791C1629.49 16.8492 1625.87 17.0726 1622.32 16.1523C1622 16.071 1621.66 15.6109 1621.56 15.2598C1621.32 14.4761 1621.96 14.1162 1622.54 13.9972C1624.69 13.549 1626.75 14.051 1628.79 14.7196C1629.68 15.01 1630.76 14.7479 1630.87 13.891C1630.94 13.2793 1630.04 12.5422 1629.57 11.8602C1627.56 12.0384 1625.54 12.5179 1623.56 11.6896C1622.28 11.6602 1621 11.6308 1619.73 11.6014L1619.4 11.9547L1618.93 11.838C1617.06 13.2488 1616.9 13.2482 1615.67 11.815L1615.65 11.9109C1614.87 11.8196 1614.09 11.7297 1613.32 11.6384C1612.69 12.5278 1611.98 13.2261 1610.76 12.8663C1609.89 13.208 1609.02 13.2363 1608.2 12.7288C1606.73 12.6133 1606.43 10.9587 1605.25 10.4711C1601.75 10.947 1598.26 10.9523 1594.77 10.4123C1593.35 11.093 1591.88 11.6014 1590.27 11.5839C1589.85 11.5662 1589.43 11.5498 1589 11.532C1588.15 11.5084 1587.29 11.4834 1586.44 11.4598C1585.6 11.8443 1584.75 12.1794 1583.88 11.5237C1582.97 11.6572 1582.48 11.1365 1582.13 10.403C1579.01 10.3779 1575.9 10.3528 1572.79 10.329C1570.62 11.3598 1568.26 11.1513 1565.96 11.4043C1565.54 11.3798 1565.1 11.3566 1564.66 11.3334C1560.56 10.6082 1556.43 10.9881 1552.31 10.8494C1550.7 10.7946 1548.99 11.3114 1547.5 10.2291C1545.74 10.235 1543.97 10.2409 1542.21 10.2482C1541.82 10.9732 1541.2 11.284 1540.38 11.1858C1539.52 11.8489 1538.65 11.7132 1537.79 11.2122C1536.64 11.3834 1535.68 11.0607 1534.94 10.1562C1532.71 10.2322 1530.47 10.7414 1528.23 10.1333C1527.27 10.5359 1526.28 11.3371 1525.36 11.2639C1522.87 11.0654 1520.42 10.4951 1517.94 10.07C1516.63 10.6271 1515.32 10.5483 1514.02 10.0948C1512.3 11.1569 1510.38 11.2514 1508.44 11.2913C1507.89 12.1703 1507.29 12.1118 1506.67 11.3478C1505.25 11.3432 1503.84 11.3373 1502.41 11.3313C1501.73 12.0137 1501.05 11.9868 1500.4 11.2801L1500.08 11.5081L1499.76 11.3041C1498.93 12.0806 1498.1 12.8598 1496.82 12.561C1496.4 12.4699 1495.97 12.3774 1495.54 12.2863C1494.8 12.3632 1494.35 12.0266 1494.09 11.3708L1493.6 11.4168C1493.6 11.4168 1493.12 11.2801 1493.08 11.2706C1492.05 12.4543 1490.7 12.6939 1489.22 12.4997C1488.53 13.2701 1487.67 13.6878 1486.61 13.5687C1483.68 14.5484 1480.7 13.6225 1477.75 13.8941C1477.28 13.6641 1476.82 13.4341 1476.37 13.2042C1475.5 13.2299 1474.65 13.2556 1473.79 13.2801C1472.09 13.2355 1470.38 13.191 1468.69 13.1479C1467.97 13.2288 1467.68 12.7036 1467.33 12.2315C1467.71 10.9517 1467.34 9.77812 1466.83 8.62528C1462.02 9.05705 1457.24 9.0649 1452.44 8.54202C1450.86 9.63271 1449.3 10.3155 1447.71 8.55808C1445.45 8.97392 1443.2 9.00047 1440.95 8.50298C1440.02 8.95243 1439.1 9.40185 1438.18 9.8513C1437.99 10.6172 1437.62 11.1276 1436.68 10.8637C1436.26 10.8539 1435.83 10.8428 1435.39 10.8329C1434.27 11.0602 1433.34 10.7656 1432.65 9.83203C1431.32 9.36509 1429.98 8.89946 1428.65 8.43251C1428.24 8.52677 1427.83 8.705 1427.41 8.70326C1414.85 8.66769 1402.29 8.61616 1389.73 8.55125C1389.32 8.54818 1388.89 8.37972 1388.48 8.28731C1387.58 9.13954 1386.69 9.99044 1385.79 10.8427C1386.29 12.1141 1387.14 13.103 1388.59 12.7052C1390.68 12.1326 1392.63 11.5448 1394.39 13.4416C1395.04 14.1443 1395.86 13.6771 1396.68 13.4366C1398.46 12.9147 1400.31 12.6612 1402.13 12.2275C1402.92 12.0361 1403.52 12.536 1403.45 13.025C1403.18 15.1533 1404.44 15.3946 1406.06 15.5921C1408.55 15.8933 1411.1 15.236 1413.55 16.1063C1412.71 16.8481 1411.87 17.5872 1411.01 18.3289C1399.74 18.4815 1388.46 18.6539 1377.18 18.7811C1355.26 19.0288 1333.35 19.2765 1311.43 19.4575C1308.19 19.4839 1305.04 20.0333 1301.99 20.8844C1298.22 21.9366 1294.46 22.1687 1290.62 22.0298C1276.58 21.524 1262.55 20.8663 1248.51 20.5285C1240.22 20.3296 1231.92 20.6333 1223.62 20.693C1222.34 20.7023 1221.06 20.6822 1219.79 20.5422C1219.24 20.4811 1218.5 20.374 1218.46 19.4845C1218.42 18.7497 1218.92 18.4145 1219.37 17.9844C1220.35 17.0445 1222.13 17.036 1222.67 15.2316C1221.97 14.9926 1221.43 14.6571 1220.89 14.6481C1216.21 14.575 1211.52 14.5699 1206.84 14.5236C1205.31 14.5078 1203.86 14.6524 1202.72 15.8249C1201.83 16.7358 1200.89 16.7532 1200 15.8441C1198.45 14.2655 1196.57 14.3029 1194.65 14.7722C1192.79 15.2257 1190.98 15.8688 1189.13 16.3276C1188.13 16.5754 1186.97 16.8932 1186.15 15.9671C1184.83 14.4802 1183.12 14.6663 1181.43 14.6112C1177.18 14.4746 1172.93 14.0314 1168.7 14.8789C1167.76 15.0683 1167.03 14.5212 1166.75 13.648C1166.47 12.7628 1166.83 11.9617 1167.66 11.5225C1168.97 10.8306 1170.32 10.219 1171.65 9.57396C1173.52 9.68984 1175.97 9.09346 1177.15 10.0571C1180.53 12.8221 1184.28 12.0072 1187.94 12.0213C1189.94 12.0297 1192.13 12.9682 1193.97 11.3587C1193.48 11.3219 1192.98 11.2905 1192.49 11.2551C1192.98 11.2905 1193.48 11.3219 1193.97 11.3587C1195.04 10.4658 1196.06 9.6408 1197.66 9.80885C1199.23 9.97414 1200.84 9.81689 1202.43 9.80226C1207.5 9.68094 1212.57 9.55027 1217.63 9.44762C1218.88 9.42219 1219.55 8.75569 1219.9 7.65319C1219.17 7.90343 1218.47 7.87248 1217.81 7.41906C1216.85 7.64299 1216.33 7.0995 1215.96 6.32191C1214.54 6.28927 1213.12 6.25662 1211.71 6.22399C1210.58 7.00991 1209.44 7.05048 1208.3 6.25099C1206.52 6.24614 1204.73 6.2426 1202.95 6.23775C1202.36 6.64462 1201.78 7.05149 1201.2 7.45837C1200.16 7.22067 1199.06 7.12268 1198.35 6.16102C1195.63 6.17758 1192.92 6.19282 1190.2 6.20937C1190.08 6.59154 1189.89 6.93473 1189.62 7.23762C1189.21 7.22255 1188.81 7.15688 1188.41 7.04187C1186.7 7.49466 1184.98 7.68738 1183.24 7.17738C1182.1 7.35391 1181.15 7.01259 1180.44 6.08559C1178.11 6.08775 1175.77 6.09124 1173.43 6.09473C1171.38 7.89678 1168.94 7.01318 1166.64 7.09015C1163.41 8.0859 1160.16 7.76287 1156.9 7.30914C1156.75 8.12053 1156.6 8.93191 1156.45 9.74329C1156.13 10.3099 1155.81 10.8805 1155.02 10.8532C1155.02 10.8519 1154.9 10.9288 1154.9 10.9288C1153.04 13.4783 1150.44 14.8593 1147.39 14.3478C1143.68 13.7255 1141.24 15.4472 1138.87 17.7906C1138.47 18.1876 1137.79 18.306 1137.24 18.553C1134.1 18.5038 1130.97 18.456 1127.83 18.4068C1125.3 17.9655 1122.68 18.8904 1119.43 17.7487C1121.28 16.7259 1122.65 16.1143 1124.21 15.8955C1124.49 14.6593 1124.72 13.3976 1122.98 13.0756C1120.88 12.6855 1118.82 12.7621 1117.2 14.4166C1116.06 15.5718 1115.07 15.4623 1114.14 14.2397C1112.7 12.3243 1110.99 13.0052 1109.29 13.634C1109.25 13.9978 1109.23 14.3644 1109.17 14.7228C1108.55 18.0962 1108.25 18.1937 1104.88 16.1461C1104.88 16.1461 1104.93 16.1956 1104.93 16.1956L1104.33 16.2651L1103.83 15.9376C1103.96 15.5648 1103.99 15.1836 1103.93 14.7954C1104.28 14.6089 1104.66 14.5318 1105.05 14.5534C1105.01 13.7746 1104.97 12.9958 1104.93 12.2183C1101.59 11.9789 1098.21 11.9553 1094.91 10.6427C1095.55 8.60141 1097.89 9.11656 1098.75 7.72683C1099.05 7.22678 1099.46 6.44054 1099.27 6.06907C1099.05 5.63478 1098.24 5.45933 1097.65 5.2582C1095.96 4.67905 1095.06 6.40326 1093.65 6.69202C1092.09 7.74278 1090.42 7.08376 1088.79 6.97955C1088.91 7.73873 1089.04 8.49797 1089.16 9.25716C1089.16 9.25717 1089.52 9.07462 1089.52 9.07462L1089.8 9.35454C1090.66 9.12215 1091.76 9.30674 1091.78 10.0748C1091.79 10.7242 1090.68 11.0983 1089.8 10.7905C1087.23 11.3264 1084.66 11.4582 1082.12 10.6435C1080.37 10.5054 1081.03 9.10551 1080.81 8.16324C1080.17 8.01656 1079.6 7.77819 1079.32 7.13302C1077.94 6.96853 1076.59 6.25482 1075.16 7.26081C1074.49 7.73664 1073.52 7.55395 1072.78 6.98282C1071.59 7.36446 1070.42 7.39687 1069.32 6.68289C1068.5 6.8061 1068.07 6.41764 1067.92 5.66234C1067.18 5.49122 1066.62 5.09546 1066.28 4.39005C1064.97 4.38454 1063.66 4.37902 1062.36 4.37351C1062.07 5.0803 1061.78 5.7871 1061.49 6.49389L1060.93 6.52618L1060.37 6.47715C1059.52 7.12558 1058.66 6.97929 1057.78 6.53161C1056.99 6.62427 1056.4 6.32441 1055.99 5.63338C1054.63 6.01964 1053.27 6.00463 1051.91 5.60558C1051.51 6.25323 1050.91 6.46263 1050.18 6.4089C1047.23 7.42848 1044.23 7.29986 1041.2 6.81913C1040.74 6.90385 1040.28 6.98991 1039.82 7.07463C1039.21 6.57207 1038.61 6.06815 1038 5.56559C1032.36 5.95384 1026.73 5.97676 1021.09 5.4557C1020.54 5.85071 1019.99 6.24571 1019.44 6.64073C1019.02 6.53763 1018.6 6.43586 1018.18 6.33275C1013.61 7.01484 1009.02 6.69819 1004.43 6.63754C1004.27 7.45821 1004.11 8.27888 1003.95 9.09955L1004.02 9.20785C1006.15 9.22882 1008.28 9.24978 1010.41 9.27074C1010.85 9.25929 1011.3 9.24651 1011.75 9.23506C1012.62 9.13471 1013.48 9.03435 1014.35 8.93534C1014.77 9.41044 1015.19 9.8869 1015.61 10.362L1015.68 10.277C1015.66 10.8089 1015.63 11.3421 1015.6 11.874L1015.21 12.1003L1014.87 11.8042C1013.56 12.6014 1012.09 12.3552 1010.68 12.3906C1008.26 12.4524 1005.89 12.3424 1003.55 13.4619C1002.56 13.935 1002.82 12.4441 1002.6 11.7725C1002.1 11.3411 1001.61 10.9097 1001.12 10.4783C1000.56 10.488 999.995 10.4989 999.431 10.5085C998.35 11.4013 997.275 12.1821 996.324 10.3661C995.205 9.9974 994.952 9.07099 994.78 8.09026C994.403 8.018 994.029 7.92975 993.664 7.81088C993.559 7.40777 993.419 7.01647 993.243 6.6384C988.446 6.71952 983.646 6.90334 978.85 6.84047C976.161 6.80514 973.411 7.36286 970.775 6.34108C969.015 6.411 969.286 4.98946 969.025 3.95902C965.915 4.39792 962.806 4.4435 959.697 3.9304C959.135 4.76671 959.14 5.71078 959.02 6.67028C958.942 7.29929 958.264 7.12843 957.933 6.56036C957.109 6.48622 956.285 6.41341 955.462 6.33927C954.933 7.23039 954.747 8.14428 955.279 9.1052C956.164 9.49826 957.049 9.89129 957.936 10.2844C957.049 9.89129 956.164 9.49826 955.279 9.1052C953.947 10.3969 953.203 9.58981 952.576 8.35116C951.936 6.73378 951.796 4.83713 950.062 3.82848C949.427 3.83914 948.793 3.84985 948.159 3.86051C947.749 4.67345 947.559 5.67128 946.45 5.89727C946.08 6.04505 945.71 6.19287 945.34 6.34065C945.297 7.13647 945.253 7.93228 945.21 8.72678C945.517 8.79607 945.853 8.82149 946.172 8.87217C945.853 8.82149 945.517 8.79604 945.21 8.72808C944.776 9.53426 944.341 10.3405 943.907 11.1466C946.372 11.1917 948.838 11.2367 951.305 11.2831C948.838 11.2367 946.372 11.1917 943.907 11.1466C942.699 11.7335 941.468 11.4631 940.208 11.3351C938.552 11.1654 936.876 11.1877 935.208 11.1273C934.725 9.57459 935.495 7.80982 934.404 6.35988C927.871 6.3297 921.34 6.29954 914.808 6.26803C913.726 7.07014 912.649 7.03896 911.576 6.2451C906.288 6.23483 901.002 6.22456 895.715 6.21429C895.021 6.88071 894.346 6.86319 893.685 6.1644C892.252 6.18637 890.822 6.20833 889.391 6.2303C889.057 6.58356 888.724 6.93683 888.392 7.2901C888.107 6.87556 887.821 6.45968 887.536 6.04514C885.684 6.00534 883.827 5.86955 881.98 5.95644C880.29 6.03599 880.139 6.71269 881.157 8.95033L881.31 8.36158C881.702 8.40456 882.068 8.52349 882.408 8.72226C882.196 9.31071 881.804 9.649 881.151 9.62492C879.878 9.62489 878.603 9.6262 877.33 9.62751C877.13 9.65733 876.929 9.70714 876.729 9.71163C872.841 9.78325 872.841 9.78194 872.168 5.98307C871.229 6.04445 870.29 6.10586 869.351 6.16724L869.35 6.16723L869.01 6.31776L868.726 6.07925C868.049 6.70841 867.378 7.34155 867.388 8.37227L867.438 8.26447C867.327 8.75867 867.217 9.25427 867.105 9.7498C867.539 10.2196 867.972 10.6908 868.406 11.1606C868.156 12.0623 867.622 12.6267 866.627 12.5118C864.97 12.3208 863.26 12.2856 861.894 11.1118C859.777 11.0416 857.659 10.9714 855.542 10.9011C854.292 11.6452 853.013 11.5811 851.718 11.0316C851.283 10.9764 850.847 10.9226 850.411 10.8661C850.445 10.4863 850.445 10.1062 850.414 9.72611C848.962 9.51732 847.332 9.78784 846.381 8.22649C846.381 8.22649 846.379 8.22778 846.378 8.22778C846.161 7.13619 845.382 6.68359 844.343 6.67388C843.515 6.66639 842.761 6.58854 842.14 5.98725C840.807 6.40964 839.481 6.32807 838.157 5.95049C835.926 6.71309 833.671 7.32094 831.276 7.02952C831.208 7.39457 831.189 7.76246 831.217 8.13325C831.189 7.76246 831.208 7.39457 831.276 7.02952C831.091 6.6874 830.917 6.33999 830.751 5.98863L830.557 5.96515C830.147 6.6981 829.494 6.994 828.683 7.00258C828.683 7.00258 828.719 7.11741 828.719 7.11608C828.758 7.31891 828.806 7.49779 828.866 7.65271C828.806 7.49779 828.758 7.31891 828.719 7.11608C827.767 6.9374 826.815 6.75736 825.863 6.57735C825.79 6.87305 825.805 7.16649 825.907 7.45358C825.971 8.19653 826.036 8.93947 826.101 9.68242C826.546 10.0336 826.992 10.3848 827.437 10.736C826.992 10.3848 826.546 10.0336 826.101 9.68242C826.036 8.93947 825.971 8.19653 825.907 7.45358C823.086 6.23636 822.838 6.35263 822.052 9.24934C821.277 9.35141 820.501 9.45349 819.724 9.55556C815.884 9.87938 812.046 10.4352 808.2 9.61365C807.583 9.55905 806.953 9.33509 807.089 8.63299C807.298 7.56053 806.928 6.69762 806.452 5.82227L806.023 5.8178C804.435 6.70578 802.844 6.96038 801.252 5.827C799.435 6.38201 797.617 6.38237 795.797 5.85337C794.787 6.09711 793.771 6.31819 792.768 6.58997C792.138 6.76198 791.605 7.15172 791.79 7.86984C791.867 8.17017 792.359 8.5549 792.676 8.56824C793.936 8.62288 795.202 8.54958 796.464 8.5189C798.823 8.4595 801.047 8.7995 802.767 10.6388C800.441 10.3703 798.143 10.09 796.145 11.8482C795.298 12.594 793.957 12.7657 793.167 12.0997C789.731 9.21187 785.771 11.4459 782.135 10.7612C777.822 12.7577 773.508 11.4382 769.189 10.772C768.502 11.1584 767.859 11.0291 767.234 10.6291C763.502 10.6534 759.769 10.743 756.042 10.646C755.315 10.6269 754.608 9.88126 753.889 9.47023C753.167 9.80986 752.489 9.8003 751.882 9.21907C751.535 9.09494 750.966 9.05389 750.884 8.83354C750.631 8.1498 751.232 7.80701 751.696 7.4503C751.696 7.44897 751.71 7.3637 751.71 7.3637C750.996 7.00336 750.545 6.44146 750.379 5.66342C747.958 4.55055 745.458 4.92931 742.957 5.32011C742.548 5.41039 742.137 5.5007 741.727 5.59097C740.174 6.3471 739.621 4.65277 738.527 4.28282C738.041 4.75144 737.556 4.67601 737.07 4.28729C736.697 5.01906 736.077 5.35378 735.281 5.40776L735.276 5.41178C734.779 6.58303 733.824 6.787 732.7 6.62626L732.82 6.91076C730.212 6.8171 727.606 6.72348 724.998 6.62982C724.988 7.47912 724.979 8.32841 724.969 9.17771C727.156 9.13892 729.343 9.10015 731.529 9.0627L731.35 9.34462C731.867 9.31747 732.349 9.40215 732.212 10.0629C732.181 10.2121 731.679 10.2646 731.395 10.3608L730.994 10.7618L730.452 10.6008C726.777 11.3 723.103 12.4539 719.432 10.5784C717.663 11.0176 715.897 11.0609 714.137 10.5308C712.215 10.972 710.293 11.4146 708.371 11.8559C707.099 11.6158 705.445 11.9048 705.955 9.59762C706.155 8.68645 705.793 7.65159 705.686 6.6738C704.705 6.54834 703.724 6.42021 702.742 6.30007C701.592 6.16056 700.86 6.59879 700.687 7.80073C701.176 8.11613 701.669 8.42492 702.152 8.74962C702.592 9.04615 703.02 9.3613 703.453 9.66846C702.952 9.91968 702.45 10.1722 701.949 10.4235C699.839 9.28256 697.685 10.6108 695.56 10.3125C693.006 11.0631 690.443 10.9323 687.876 10.3948C686.662 10.8604 685.43 10.8125 684.19 10.522C684.191 10.522 684.243 10.4715 684.243 10.4715C682.658 11.4782 680.887 11.7 679.077 11.5791C678.196 11.5194 677.62 10.925 677.618 9.99694C677.617 9.29693 678.165 9.02057 678.769 8.86311L678.767 8.87111C680.326 6.58299 680.326 6.58296 677.67 6.34244C677.242 6.3953 676.815 6.44683 676.386 6.49836C674.092 6.08203 671.797 5.6644 669.501 5.24806C668.51 5.70255 667.521 5.62639 666.533 5.2409C666.221 5.49292 665.887 5.72218 665.6 6.00097C664.311 7.25422 663.582 6.65778 663.08 5.26098C662.605 5.62832 662.126 5.71166 661.642 5.27895C661.114 6.3594 660.511 7.84487 659.092 6.75755C657.15 5.27069 655.292 6.02021 653.354 6.34405C652.865 7.47133 652.285 7.33686 651.65 6.46884C651.291 6.74466 650.997 6.68609 650.771 6.2958C649.569 6.46407 648.739 5.66324 647.797 5.15527C647.242 5.5956 646.685 5.5866 646.127 5.16425C645.138 5.55609 644.15 5.94925 643.162 6.34109C642.983 7.03234 642.553 7.45853 641.843 7.59154C641.727 8.17505 641.47 8.67135 640.789 8.46048C640.605 8.4037 640.568 7.8662 640.463 7.54842L640.23 7.2794L640.42 6.97753C638.99 5.31949 636.688 6.1445 635.045 5.08957L634.782 5.2858L634.515 5.09398C633.307 5.56223 633.001 7.19297 631.568 7.36694C631.141 7.43447 630.714 7.50202 630.287 7.56955C626.885 8.02056 626.885 8.02056 625.903 5.11506C624.488 5.5051 623.081 5.49782 621.683 5.03993C621.104 7.62818 621.104 7.62822 618.767 7.43704C617.891 7.74402 617.034 7.77906 616.209 7.27158C614.698 7.21188 614.493 5.52969 613.372 4.98363L612.999 5.19137L612.638 4.96849C610.22 5.91832 607.802 5.89883 605.38 4.96995C603.59 5.56375 601.801 5.02687 600.014 4.97C599.476 5.39174 598.938 5.81479 598.399 6.23652C598.053 6.6884 597.735 7.45776 597.351 7.49214C594.32 7.76205 591.371 7.5323 588.892 5.43117C588.589 5.17522 588.177 5.04679 587.815 4.85859C587.555 5.14417 587.295 5.14444 587.034 4.85934C583.952 6.2237 580.857 6.01335 577.754 4.9416C576.28 4.9114 574.806 4.87981 573.333 4.84961C572.178 5.69142 571.043 5.60265 569.922 4.77925C569.29 4.80592 568.657 4.83391 568.023 4.86058C567.105 5.78738 566.182 6.59948 564.976 5.22639C564.289 4.44215 563.608 3.64466 562.853 2.93214C561.187 1.35978 557.382 0.90637 555.406 2.22472C554.881 2.57585 554.875 3.70786 554.63 4.4815C554.246 4.45055 553.869 4.3836 553.497 4.2807C551.367 4.31972 549.234 4.35875 547.104 4.39778C546.221 4.43139 545.747 3.96007 545.553 3.14058C545.456 2.7695 545.428 2.11071 545.251 2.0673C541.902 1.25452 538.553 0.619093 535.681 3.35102C535.411 3.85389 535.155 4.26213 534.428 4.2604C532.681 4.25837 530.937 4.3777 529.191 4.44635C527.718 5.02948 526.227 5.17787 524.709 4.6248C523.041 5.52578 521.376 5.54679 519.706 4.62508C518.24 5.07225 516.79 4.79944 515.337 4.55199C513.41 5.52788 511.481 6.10379 509.54 4.5876C509.538 4.58759 509.061 4.56553 509.061 4.56553C508.321 5.26908 507.577 5.29264 506.824 4.58013C506.242 5.02968 505.684 4.85665 505.131 4.52365C504.067 5.37117 503.001 5.30001 501.931 4.53549C501.929 4.53549 501.416 4.52799 501.416 4.52799C496.407 5.36156 489.547 5.33671 485.215 4.47178C484.481 4.7927 483.779 4.70169 483.099 4.31216C482.246 4.30856 481.393 4.30634 480.539 4.30274C479.288 4.76281 478.027 5.01882 476.731 4.47335C475.023 4.35416 473.316 4.235 471.608 4.11714C470.933 4.57696 470.206 4.66588 469.432 4.42262C468.802 5.24131 468.184 5.61071 467.611 4.41228C466.309 4.27746 464.989 3.21188 463.717 4.58253C461.872 6.57078 460.105 5.65533 458.374 4.36269C456.93 4.78862 455.49 4.82124 454.054 4.32985C450.815 5.55088 447.581 5.13994 444.347 4.31031C441.654 4.77231 438.964 4.73829 436.275 4.29363C435.708 4.70724 435.141 5.12087 434.574 5.53315C434.336 6.31883 434.02 7.14817 433.012 6.49592C432.015 5.85171 431.148 5.00539 430.224 4.24816C426.94 4.24899 423.644 4.78977 420.381 3.99868C420.176 3.95649 419.856 3.98177 419.785 3.86147C418.396 1.51826 416.04 0.877681 413.633 0.315537C406.198 0.996225 398.767 0.318258 391.336 0.226953C390.202 1.28752 387.865 0.241643 387.388 2.45299C388.487 2.93629 389.589 3.41963 390.764 3.93525C386.974 5.09663 386.163 5.09851 380.446 3.98776C378.501 3.98756 376.557 3.9874 374.612 3.9872C373.981 4.68322 373.354 4.67524 372.735 3.97129L372.378 4.19915L372.025 3.967C371.397 4.65502 370.766 4.65765 370.134 3.97232C368.66 4.43944 367.188 4.43728 365.718 3.96042C364.243 4.79021 362.777 5.04534 361.336 3.88193C359.854 4.14236 358.372 4.4788 356.88 3.94318C355.727 4.74366 354.582 4.69085 353.444 3.91138C346.312 4.24934 339.182 4.24997 332.061 3.67997C330.875 3.99631 329.948 3.53105 329.327 2.58042C327.738 0.152376 325.448 0.310746 323.108 0.903562C322.673 1.0124 322.398 1.75125 322.06 2.23783C322.779 2.47286 323.494 2.79189 323.106 3.73027C322.847 4.35718 322.251 4.36531 321.773 3.7953C318.491 4.41881 315.215 3.75298 311.936 3.73517C311.217 4.43615 310.492 4.45045 309.76 3.7527C307.544 4.20603 305.332 4.19807 303.123 3.71543C301.887 4.53423 300.657 4.53571 299.428 3.68919C297.66 4.15908 295.895 4.12363 294.13 3.68419C293.421 4.40255 292.727 4.38629 292.044 3.64741C288.872 3.86605 285.699 4.27399 282.531 3.60864C280.694 3.97557 278.857 4.34383 277.02 4.71076C276.589 4.69695 276.159 4.68186 275.727 4.66671C273.599 4.67107 271.469 4.67541 269.34 4.67978C268.045 5.28233 266.762 5.19824 265.487 4.61687C261.65 4.83004 257.815 5.82057 253.976 4.64038C250.133 4.99753 246.291 5.07469 242.458 4.53054C241.856 4.568 241.252 4.59348 240.652 4.64695C239.177 4.77941 238.396 4.30941 238.615 2.63699C238.687 2.09195 238.302 1.48767 238.128 0.909596L237.826 0.88834C236.425 1.71311 235.636 4.28312 233.222 2.00893C232.001 0.857109 229.983 1.26995 228.357 1.7911C227.907 1.93588 227.643 2.66279 227.301 3.14669C227.752 3.32993 228.207 3.55051 227.99 4.14426C227.924 4.32399 227.406 4.3405 227.097 4.43119C225.553 5.2567 223.963 5.04066 222.368 4.63393C220.388 5.72027 218.205 5.27507 216.138 5.30503C209.38 5.40723 202.619 5.31205 195.86 5.22091C195.061 5.20955 194.268 4.75286 193.473 4.50285C192.393 4.49296 191.315 4.4831 190.236 4.47456C189.612 5.1706 188.98 5.18397 188.337 4.49592C186.751 4.45057 185.164 4.40521 183.577 4.35985C182.731 4.80963 181.877 4.79672 181.018 4.40109C179.726 4.89299 178.445 4.94356 177.177 4.31688C176.174 4.38199 175.169 4.46976 174.165 4.5042C173.068 4.54091 172.156 4.15706 171.553 3.18784C170.569 3.5357 169.586 3.5996 168.605 3.17679C165.712 3.88328 165.712 3.88328 165.114 0.592727C164.553 0.96637 164.004 0.932015 163.467 0.543082C163.149 0.82041 162.708 1.03727 162.53 1.38719C161.707 3.00241 160.705 4.13016 158.623 3.73605C157.404 3.50558 156.072 3.90397 154.948 3.0819C154.197 3.44674 153.493 3.43846 152.863 2.8278C150.263 0.250155 147.711 0.863395 145.182 2.94609C144.542 3.37807 143.879 3.42729 143.194 3.05374C141.251 3.92023 139.308 4.7667 137.375 3.07988C135.745 2.95701 135.128 1.84373 134.78 0.468925C134.021 0.325725 133.479 -0.103208 133.155 -0.816578C132.696 -0.437175 132.235 -0.344465 131.768 -0.802432C131.393 -0.0213398 130.899 0.580562 129.907 0.435051L129.973 0.390014C127.651 1.39891 125.332 1.4185 123.013 0.38205C121.557 0.853258 120.108 0.596475 118.659 0.355705C117.888 0.61379 117.129 0.927902 116.34 1.11658C115.495 1.31836 114.887 1.69313 114.73 2.57381C114.839 2.6196 114.951 2.66007 115.062 2.7032C114.951 2.66007 114.839 2.6196 114.73 2.57381C114.709 2.56572 114.688 2.55764 114.666 2.54821C114.665 2.54821 114.665 2.54821 114.665 2.54821C114.595 3.05458 114.523 3.56097 114.452 4.06601C114.871 4.45978 115.291 4.85219 115.711 5.24463C115.329 5.32702 114.949 5.40944 114.567 5.49183C113.513 6.40607 112.453 6.24696 111.391 5.47448C108.693 5.45245 105.995 5.43176 103.298 5.40973C101.465 6.25535 99.6336 7.0996 97.802 7.94389C96.4648 8.5516 95.1908 8.3756 93.9633 7.63175C92.5933 7.46332 92.0556 6.29303 91.2779 5.41242C88.3383 5.3187 85.4 5.22628 82.4617 5.13257C79.4698 5.42663 76.4769 5.95139 73.487 5.12146C72.2639 5.22031 71.2703 4.65875 70.305 4.00935C64.9636 4.39752 59.6273 4.61109 54.3019 3.82598C51.97 3.96816 49.677 3.89847 47.6081 2.60175C45.6814 2.5963 43.7544 2.58955 41.8278 2.58411C41.34 3.01272 40.8523 3.44267 40.3645 3.87261C40.2818 4.73227 39.8675 5.16785 38.9387 4.94793C37.3782 5.45203 35.8065 5.64271 34.2083 5.1213C30.4998 6.23369 26.7952 6.09009 23.0921 5.08249C20.8791 5.57317 18.6678 5.53718 16.4567 5.07986C14.8603 6.43582 13.2881 5.99455 11.7225 5.01728C10.2445 5.48572 8.76835 5.48754 7.29331 5.00532C5.67679 5.85319 4.06292 5.921 2.4491 4.98752C1.76838 5.37799 1.13762 5.23534 0.530027 4.82078C-0.0547383 4.65298 -0.862529 4.67095 -1.18544 4.28425C-2.57736 2.61704 -4.07129 3.13339 -5.62041 3.80554C-5.84395 4.55127 -6.3385 4.87188 -7.13573 4.72052C-7.56598 4.71604 -7.99557 4.71022 -8.42581 4.70441C-11.4472 2.10632 -14.373 2.53802 -17.2359 4.98065C-17.2355 4.98065 -17.1989 4.96479 -17.1989 4.96479C-18.0746 5.37043 -18.9507 5.77607 -19.8264 6.18172C-20.2186 6.42274 -20.6137 6.62108 -21.0118 6.78474C-20.6137 6.62242 -20.2186 6.42277 -19.8269 6.18309C-20.668 5.80354 -21.5098 5.42397 -22.3503 5.04576C-21.3088 4.22214 -21.163 3.49875 -22.6268 3.04991C-23.5615 2.76331 -24.5227 2.55927 -25.4727 2.31793C-28.195 2.79447 -30.9148 2.78035 -33.6325 2.28623C-34.3257 3.00732 -35.0189 3.00707 -35.7137 2.28547C-43.9097 2.42295 -52.1055 2.8924 -60.2975 2.19123C-61.5783 3.19917 -62.8522 3.19783 -64.1224 2.1658C-64.125 2.16579 -64.0565 2.11139 -64.0565 2.11139C-66.3905 3.2389 -68.9037 3.02829 -71.379 3.08987C-73.8595 3.15275 -76.3409 3.19696 -78.8219 3.24784C-86.6323 3.36161 -94.4424 3.50876 -102.253 3.56653C-104.567 3.58344 -106.883 3.34564 -109.199 3.22522C-115.579 4.30636 -126.862 4.26153 -131.676 3.13725C-131.677 3.13724 -131.94 3.32943 -131.94 3.32943L-132.202 3.13633C-134.4 4.20442 -136.791 3.97571 -139.098 4.01133C-147.822 4.14658 -156.548 4.17781 -165.273 4.18506C-170.587 4.18934 -175.9 4.07492 -181.213 4.01388C-187.839 4.39664 -194.464 4.82476 -201.097 4.12615C-204.369 5.29371 -207.744 4.62479 -211.072 4.62411C-213.055 4.62376 -213.334 2.27856 -214.816 1.50564C-220.172 2.08442 -225.525 1.88589 -230.875 1.42335C-231.817 2.24605 -231.728 4.25312 -233.705 3.89146L-234.046 4.20467L-234.479 4.03488C-237.424 5.93582 -237.424 5.93584 -240.603 2.72509C-243.209 3.14612 -245.813 3.14714 -248.415 2.68684C-249.62 3.32444 -249.851 5.24611 -251.629 5.12795C-252.523 5.54552 -253.391 5.58323 -254.214 4.95443C-255.251 4.83006 -256.286 4.60967 -257.322 4.6093C-258.526 4.6069 -259.263 5.22516 -259.182 6.55884C-259.108 7.74716 -258.185 8.97775 -259.336 10.1156C-260.618 10.0128 -261.587 9.6767 -261.52 8.0423C-261.499 7.54905 -262.071 7.03202 -262.371 6.52542C-263.321 6.93076 -264.261 6.95747 -265.188 6.45756C-266.226 7.2372 -266.299 9.28352 -268.286 8.82181C-269.4 8.87846 -270.515 8.93645 -271.63 8.99308C-271.982 9.71694 -272.463 10.2443 -273.355 10.1552C-273.875 10.941 -274.429 10.8387 -275.003 10.2136C-276.219 10.5445 -277.394 10.3528 -278.554 9.94791C-279.363 9.92717 -280.177 9.83574 -280.979 9.90436C-282.075 9.99574 -282.248 10.6777 -281.766 11.5464C-281.575 11.8886 -281.239 12.1606 -280.936 12.4272C-280.366 12.927 -279.498 13.4453 -280.595 14.1313C-281.006 14.3883 -281.754 14.1038 -282.348 14.068C-283.046 14.4624 -283.742 14.4581 -284.436 14.0579C-284.695 14.3754 -284.958 14.6903 -285.224 15.0025C-296.669 15.0183 -308.113 15.0381 -319.558 15.0433C-321.248 15.0441 -322.937 14.9744 -324.626 14.9379C-326.176 15.4354 -327.737 15.6355 -329.325 15.1141C-329.711 15.2845 -330.091 15.5895 -330.485 15.6066C-340.473 16.0218 -350.463 16.4504 -360.464 16.055C-363.754 16.4078 -367.041 16.8699 -370.348 16.2213C-371.435 16.9994 -372.516 17.0069 -373.592 16.1943C-376.045 16.252 -378.503 16.7336 -380.949 16.1113C-382.569 16.4592 -383.844 15.6418 -385.131 14.8684C-386.15 15.2761 -387.172 15.3198 -388.198 14.8928C-389.042 15.9013 -389.042 17.9373 -391.194 17.3549C-391.983 17.9116 -392.773 17.6682 -393.563 17.3542C-394.453 17.7745 -395.344 18.1947 -396.234 18.615C-396.192 19.3725 -396.15 20.13 -396.108 20.8875C-395.757 20.8183 -395.396 20.6985 -395.068 20.7559C-394.731 20.816 -394.24 21.0527 -394.161 21.3157C-393.959 21.9926 -394.469 22.2958 -395.066 22.408C-395.444 22.4784 -395.833 22.4941 -396.217 22.5338C-396.965 23.6906 -398.161 24.0416 -399.353 23.7819C-401.776 23.2517 -404.181 23.6668 -406.591 23.634C-407.347 24.1415 -408.121 24.0289 -408.901 23.7043C-410.218 24.3068 -411.534 24.9092 -412.851 25.513C-412.852 25.5143 -412.786 25.616 -412.786 25.616C-410.442 27.4672 -407.622 27.1271 -404.928 27.2624C-402.658 27.3773 -400.377 27.3029 -398.06 27.3127C-398.6 30.3825 -398.6 30.3825 -395.214 31.9967C-396.594 33.1509 -398.742 32.7538 -399.73 34.9604C-400.879 37.5289 -399.797 39.3015 -398.729 41.2594C-398.406 41.178 -398.099 41.2167 -397.81 41.3912C-397.163 40.9286 -396.515 40.466 -395.869 40.0021C-394.281 38.8621 -393.738 39.7643 -393.461 41.1882C-392.494 41.3723 -391.506 41.4871 -390.571 41.7724C-389.639 42.055 -390.065 42.7425 -390.49 43.062C-391.115 43.5314 -391.887 43.8042 -392.598 44.1612C-393.015 44.1101 -393.422 44.1524 -393.821 44.2867C-393.794 44.6375 -393.802 44.9894 -393.845 45.3426C-393.464 45.4722 -393.074 45.5245 -392.671 45.5009L-392.674 45.5035C-393.036 45.958 -393.399 46.4125 -393.761 46.8683C-393.76 46.8696 -393.681 46.774 -393.681 46.774C-393.605 47.5676 -393.53 48.3599 -393.455 49.1536C-393.124 49.0976 -392.845 49.1935 -392.62 49.4412C-391.718 49.3129 -390.816 49.1861 -389.913 49.0579C-388.178 49.6399 -386.443 50.2245 -384.705 50.8011C-384.164 50.9794 -384.014 51.2987 -384.347 51.74C-384.58 52.051 -384.871 52.5205 -385.166 52.5432C-385.966 52.6038 -386.805 52.5643 -387.585 52.3837C-389.161 52.017 -390.71 51.5425 -392.327 52.0917C-392.263 52.408 -392.29 52.7159 -392.427 53.0126C-390.93 54.6883 -390.951 54.9482 -392.533 55.8309C-392.532 55.8309 -392.491 55.8057 -392.491 55.8057C-393.77 56.2257 -395.047 56.6456 -396.327 57.0656C-396.207 57.8181 -396.088 58.5693 -395.968 59.3204C-394.603 58.7608 -393.246 58.7679 -391.892 59.3603C-390.95 58.8496 -390.008 58.3376 -389.066 57.8255C-386.982 55.6556 -385.025 57.0292 -383.056 58.1335C-383.054 58.1348 -383.08 58.1107 -383.08 58.1107C-382.546 57.233 -382.411 56.0108 -381.094 55.8057C-381.094 55.807 -381.026 55.7647 -381.026 55.7647C-380.474 54.843 -379.745 54.2607 -378.59 54.5069C-376.858 54.5249 -375.126 54.5415 -373.395 54.5595C-372.576 54.5149 -371.755 54.4704 -370.937 54.4258C-369.203 52.7784 -367.471 51.1311 -365.737 49.4837L-365.462 49.1075L-365.02 49.2534C-363.504 48.2131 -361.762 48.4258 -360.078 48.4089C-356.678 48.3752 -353.275 48.4109 -349.875 48.3932C-348.995 48.3889 -348.237 48.5654 -347.738 49.3502C-346.698 49.4026 -345.786 49.7171 -345.158 50.6078C-343.1 50.6058 -341.042 50.6051 -338.984 50.6044C-333.935 51.375 -328.857 50.8738 -323.792 50.9724C-322.524 50.9978 -321.251 50.9538 -319.991 51.0737C-318.616 51.2049 -318.669 52.4567 -318.369 53.4073C-317.952 53.441 -317.544 53.5254 -317.149 53.6618C-314.99 53.3082 -312.835 53.3119 -310.681 53.7063C-310.278 53.5654 -309.872 53.5644 -309.468 53.7061C-307.847 53.5983 -306.225 53.4891 -304.604 53.3813C-304.17 51.9431 -303.831 50.4018 -301.742 50.7946C-298.281 50.3332 -294.863 50.7356 -291.455 51.3099C-291.097 51.2275 -290.736 51.1717 -290.369 51.1439C-290.403 51.0731 -290.444 51.0195 -290.481 50.954C-290.444 51.0195 -290.402 51.0731 -290.369 51.1439C-290.145 51.4408 -290.061 51.7758 -290.098 52.141C-289.479 52.3063 -288.955 52.5925 -288.695 53.2109C-285.363 53.3076 -282.031 53.403 -278.699 53.4997C-272.465 52.822 -266.231 52.9082 -259.999 53.5305C-258.521 52.794 -257.05 52.4215 -255.609 53.6009C-254.513 53.5215 -253.621 53.8987 -252.958 54.7828C-252.507 54.818 -252.055 54.8533 -251.603 54.8898C-251.519 55.8582 -252.071 56.3012 -252.919 56.5003C-253.18 57.1565 -253.739 57.2342 -254.358 57.1983C-255.465 57.8363 -256.677 57.6605 -257.868 57.6542C-258.196 58.3288 -258.739 58.7145 -259.465 58.8501C-259.472 59.6701 -259.481 60.49 -259.489 61.3114C-258.238 61.3766 -256.986 61.4419 -255.736 61.5072C-254.613 61.4239 -253.489 61.3406 -252.366 61.256C-251.813 60.6837 -251.261 60.1127 -250.706 59.5377C-250.09 58.5536 -249.168 58.5735 -248.191 58.7669C-248.006 58.4637 -247.862 58.1416 -247.759 57.8007C-246.139 57.7062 -244.518 57.6117 -242.898 57.5186C-242.903 58.3946 -242.908 59.2705 -242.912 60.1465C-241.699 60.1343 -240.487 60.122 -239.275 60.1111C-239.211 59.2807 -239.146 58.4503 -239.081 57.6199C-239.744 57.4571 -240.259 57.1536 -240.273 56.3682C-240.555 56.3204 -240.83 56.2872 -241.093 56.2835C-240.83 56.2872 -240.555 56.3204 -240.273 56.3682C-239.903 56.2005 -239.519 56.1568 -239.122 56.2318C-238.583 55.2167 -237.721 54.7976 -236.597 54.8584C-235.68 53.8436 -234.407 53.9009 -233.209 53.8247C-230.56 53.6585 -227.908 53.559 -225.256 53.4328C-224.156 50.7761 -224.101 50.8257 -221.691 51.1505C-219.652 51.4257 -217.587 51.5091 -215.538 51.7124C-214.355 51.8294 -213.068 51.5215 -212.067 52.4657C-210.498 52.779 -208.96 53.1482 -207.307 52.8964C-205.278 52.5877 -203.252 52.7615 -201.386 53.7854C-200.692 53.3763 -200.019 53.4018 -199.363 53.8686C-196.913 53.5642 -194.427 53.052 -192.375 55.0687C-190.601 54.5521 -188.833 54.5276 -187.071 55.1177C-185.316 54.1224 -183.403 53.9118 -181.432 53.9854C-180.596 53.4529 -179.747 53.4405 -178.888 53.9294C-177.35 53.6373 -176.017 53.9935 -174.931 55.1435C-171.582 55.1522 -168.233 55.161 -164.885 55.1711C-162.239 53.2849 -159.613 53.6893 -156.998 55.2883L-157.057 55.2508C-155.817 55.276 -154.577 55.2999 -153.337 55.3251C-150.983 53.5643 -148.259 53.7998 -145.598 54.0484C-144.406 54.1614 -144.113 55.312 -144.071 56.4082C-142.109 56.3564 -140.103 56.1422 -138.604 57.8499C-138.603 57.8499 -138.548 57.8754 -138.548 57.8754C-135.704 55.5634 -132.352 56.6975 -129.198 56.4908C-128.749 55.2127 -128.23 53.9855 -126.919 53.3137C-126.153 54.4356 -125.998 55.9536 -124.64 56.65C-122.657 56.101 -120.687 56.0466 -118.733 56.7802C-117.082 56.7111 -115.43 56.6408 -113.779 56.5718C-113.538 56.2661 -113.328 55.8443 -113.028 55.7642C-111.215 55.2839 -107.595 55.7804 -105.347 56.7193C-105.346 56.7193 -105.231 56.7131 -105.231 56.7131C-104.844 55.9907 -104.231 55.6133 -103.428 55.5287C-102.536 53.6871 -101.634 54.9029 -100.733 55.5227C-93.9274 55.5713 -87.1213 55.6201 -80.3157 55.6701C-79.2123 55.1254 -78.0974 55.05 -76.9678 55.5881C-74.936 54.5914 -72.9092 54.6599 -70.8851 55.6164C-66.3472 55.0355 -61.8151 54.9653 -57.2896 55.7163C-56.9202 55.4392 -56.5325 55.4089 -56.1277 55.6199C-55.4633 54.8067 -54.626 54.3516 -53.5517 54.3868C-52.4532 53.158 -51.3446 53.4508 -50.2298 54.3968C-50.2276 54.3981 -49.9065 54.1981 -49.9065 54.1981L-49.6165 54.4393C-46.7617 54.0634 -43.9385 53.8846 -41.4364 55.7378C-40.7357 55.3248 -40.0481 55.3157 -39.3746 55.7958C-37.2658 55.7861 -35.1562 55.7763 -33.0468 55.7665C-32.2431 55.2619 -31.4395 54.7559 -30.6358 54.25C-29.3376 52.9448 -29.1757 52.9734 -27.2351 54.4789C-27.2341 54.4789 -27.1666 54.5219 -27.1666 54.5219C-23.7858 53.0295 -20.4097 52.9024 -17.037 54.5566C-17.0348 54.5566 -16.6682 54.3168 -16.6682 54.3168L-16.333 54.5982C-12.8416 54.5676 -9.35017 54.5143 -5.85909 54.5183C-4.82775 54.52 -3.8057 54.6976 -3.19852 55.7162C-3.19798 55.7149 -3.23357 55.6521 -3.23357 55.6521C-2.83598 55.4644 -2.50085 55.5432 -2.22831 55.8883C4.17192 55.3406 10.5667 55.2249 16.9528 56.0784C17.8111 56.066 18.6701 56.055 19.5284 56.044L19.8124 55.7718L20.1616 55.952C21.8379 53.9257 23.4696 55.2178 25.1094 56.0194C31.5673 55.392 38.0216 55.4832 44.4756 56.0517C46.9035 53.8513 49.3192 54.0001 51.7255 56.0903L51.6569 56.0353C52.0701 55.8757 52.4521 55.932 52.8037 56.2014C55.5968 55.4652 58.3968 55.5876 61.1997 56.1408C62.0312 55.2189 62.8584 55.2291 63.6836 56.1512C64.7561 55.6491 65.8143 55.6762 66.8604 56.2247C69.8585 55.8733 72.8529 55.9552 75.8447 56.3212L76.2113 56.028L76.6438 56.2139C77.6837 54.9916 79.1231 54.799 80.5764 54.8118C83.247 54.835 85.9159 54.9516 88.5863 55.0295C90.8882 53.6272 90.9068 53.6352 92.5352 55.1195C92.5352 55.1181 92.5167 55.1007 92.5167 55.1007C93.5096 55.5035 94.5039 55.9064 95.4983 56.3093C97.9073 55.7594 100.31 55.7202 102.705 56.3876C103.991 55.7557 105.28 55.5212 106.575 56.364C109.989 55.7743 113.396 55.6927 116.791 56.499C118.516 55.8716 119.796 56.8596 121.119 57.6932C125.881 57.0959 130.64 57.168 135.398 57.7121C136.549 55.8222 137.579 56.9746 138.622 57.8203C141.503 57.7671 144.383 57.7139 147.265 57.6607C147.786 56.2215 148.716 55.2615 150.342 55.1176C153.385 54.8491 156.172 55.3182 158.248 57.8496C168.131 57.0192 178.026 57.7689 187.912 57.6173C188.944 57.6003 189.98 57.8833 191.013 58.0277C193.936 57.9866 196.858 57.9456 199.779 57.9032C200.027 57.2603 200.498 56.8689 201.184 56.7185C202.278 55.0871 202.634 55.1099 203.878 56.8432C204.65 56.9957 205.334 57.2879 205.736 58.0243C205.737 58.0243 205.757 58.0351 205.757 58.0351C206.382 57.6484 207.006 57.2603 207.63 56.8736C207.986 55.5458 209.036 55.4822 210.125 55.4948C210.903 54.3794 212.059 54.1003 213.319 54.1362C214.514 54.1706 215.248 54.511 214.642 55.9778C214.3 56.8031 214.933 57.4951 215.446 58.1252C217.486 58.0952 219.527 58.0664 221.567 58.0364C222.229 57.2605 222.87 57.4752 223.504 58.1139C224.426 57.6311 225.343 57.6323 226.257 58.1348C226.348 57.9525 226.443 57.7716 226.53 57.5879C228.618 53.2034 228.618 53.2033 233.119 55.8143L233.239 55.8815C234.261 56.6471 235.283 57.4141 236.306 58.1811C238.55 57.5985 240.787 57.5973 243.023 58.2161C244.84 57.5504 246.577 56.5084 248.645 57.0371C249.569 56.5916 250.453 56.5127 251.239 57.3227C253.374 57.701 255.771 56.3844 257.669 58.2964C258.474 58.3104 259.279 58.3232 260.085 58.3373C260.408 58.0773 260.726 57.6226 261.054 57.616C266.48 57.5002 271.934 56.8431 277.285 58.367C278.407 57.8584 279.516 57.8351 280.616 58.4238C282.761 58.0488 284.903 58.0672 287.046 58.4429L287.377 58.1629L287.74 58.4018C291.49 56.8482 295.231 56.7733 298.966 58.4597C300.117 58.0179 301.257 57.932 302.381 58.5435C303.67 58.3115 304.754 58.6361 305.563 59.7115C306.028 59.2588 306.482 59.2927 306.928 59.7399C307.523 59.3477 308.12 58.9556 308.715 58.5634C308.766 57.8623 309.043 57.3181 309.717 57.0503C309.919 56.0565 310.269 55.1686 311.353 54.8012L311.361 54.7906C311.684 53.5972 312.184 53.4554 312.88 54.4516C314.089 54.5287 315.205 54.5987 316.356 53.8089C317.989 52.6891 318.941 54.0012 319.969 55.4682C318.42 57.2363 315.679 56.3034 314.108 57.8742L314.066 58.0767C315.017 58.6513 315.968 59.2274 316.92 59.802C316.921 59.802 317.35 59.5705 317.35 59.5705L317.733 59.8721C325.846 59.9116 333.96 59.9498 342.073 59.9893L342.408 59.6907L342.816 59.8751C344.611 58.3453 344.623 58.3493 346.539 59.8814C349.742 59.3922 352.94 59.3098 356.128 60.0032C358.222 59.9854 360.319 59.9675 362.413 59.9483C363.074 59.1097 363.949 58.7307 365.009 58.7485C365.484 57.8012 365.99 57.6554 366.543 58.6524C368.537 58.4955 370.255 59.4467 372.066 60.0423C374.019 59.4559 375.961 59.42 377.893 60.1242C379.999 60.109 382.108 60.0939 384.216 60.0788C384.35 59.9394 384.472 59.7773 384.635 59.6926C387.651 58.1173 390.564 58.8322 393.449 60.1124C393.449 60.111 393.377 60.0374 393.377 60.0374C394.197 60.0835 395.017 60.1296 395.837 60.1744L396.116 59.9423L396.423 60.1382C400.247 58.4463 404.067 57.7664 407.878 60.1772C410.924 59.6167 413.966 59.6135 417.006 60.213C418.329 59.2399 419.826 58.9862 421.423 59.1422C425.685 58.2202 429.953 58.3474 434.221 59.0921C435.101 58.8651 435.551 59.3151 435.828 60.0362C436.929 60.2502 438.001 60.5214 438.677 61.5509C439.573 61.0734 440.462 61.1157 441.347 61.5808C442.604 60.3927 444.061 59.9522 445.755 60.402C446.175 60.4118 446.595 60.4216 447.015 60.4314C448.272 60.062 449.532 60.0873 450.795 60.3966C451.89 59.4426 453.163 59.0306 454.607 59.1247C455.089 58.2987 455.595 58.1542 456.138 59.0444C457.965 59.0548 459.988 58.1806 461.375 60.1732C462.294 60.6824 463.212 61.1902 464.132 61.6981C468.016 61.1145 471.897 61.1588 475.776 61.7232C476.778 58.6767 479.118 58.7986 481.603 59.2624C483.362 58.7951 485.122 58.3305 486.702 59.7505C487.706 60.4374 488.709 61.1243 489.715 61.8112C490.208 61.3546 490.707 61.3461 491.213 61.7869C491.576 61.0724 492.153 60.6308 492.919 60.4327C493.381 59.3507 494.318 59.3292 495.326 59.3468C496.658 59.3711 497.992 59.3154 499.325 59.289C499.267 58.5807 499.209 57.8738 499.15 57.1656C498.583 56.9339 497.742 56.8464 497.524 56.4321C497.001 55.4379 497.775 54.8078 498.66 54.7222C500.961 54.4998 503.275 54.4016 505.587 54.3447C505.806 54.3389 506.042 54.9759 506.27 55.3142C507.552 56.7197 508.604 58.3574 510.333 59.31C511.426 58.8373 512.505 58.8245 513.572 59.3864C515.457 59.2797 517.496 58.3815 518.977 60.3638C519.975 60.556 520.936 60.8068 521.46 61.797C522.633 61.8432 523.808 61.8909 524.982 61.9371C525.854 61.1355 526.311 59.8573 527.668 59.6137C528.496 58.9492 529.353 59.0782 530.222 59.5205C531.506 59.1339 532.791 59.1486 534.075 59.5207L534.494 59.2185L534.958 59.4458C535.657 58.7434 536.359 58.741 537.061 59.444C539.479 58.9048 541.89 58.8563 544.294 59.5251C545.8 59.2901 547.3 59.0791 548.348 60.5395C557.672 60.6735 566.994 60.8087 576.318 60.9427L576.617 60.6613L576.979 60.8562C578.216 59.0893 579.407 60.3143 580.608 60.9141C582.374 60.3402 584.139 60.3769 585.906 60.9004C586.011 60.7168 586.088 60.5078 586.227 60.3551C588.355 58.0293 588.354 58.0347 590.608 59.8389C591.102 60.233 591.63 60.5858 592.143 60.9573C596.255 60.396 600.359 60.3053 604.455 61.0945C605.252 61.0272 606.048 60.9599 606.846 60.8913C608.237 59.3558 608.465 59.3368 609.791 60.7664C612.856 60.8073 615.921 60.9108 618.984 60.8651C620.9 60.8358 622.642 61.1685 624.167 62.3762C625.905 61.8062 627.642 61.8335 629.381 62.3675C629.92 61.5018 629.948 60.2006 631.347 60.0718C631.773 59.6869 632.203 59.6821 632.636 60.0586C634.078 59.9406 635.467 60.0078 636.557 61.1378C636.972 60.9142 637.369 60.9439 637.746 61.2281L638.107 60.9403L638.523 61.1407C639.092 60.7458 639.661 60.3521 640.23 59.9572C640.299 59.2068 640.535 58.5865 641.414 58.4742L641.356 58.5179C644.248 57.3488 644.6 57.341 645.282 59.6239C645.656 60.8695 646.127 61.8034 647.189 62.4719C647.19 62.4719 647.513 62.4693 647.513 62.4693C647.938 62.0351 648.542 61.6749 648.752 61.1544C649.212 60.0084 648.344 57.8847 650.556 58.098C652.056 58.2417 651.609 60.0491 651.959 61.1426C652.072 61.4951 652.105 61.8753 652.165 62.2462C652.533 62.1331 652.848 62.221 653.106 62.5288L653.511 62.2612L653.936 62.495C655.564 61.2818 657.192 60.662 658.828 62.4823C659.324 62.035 659.812 62.1064 660.293 62.5084C661.356 61.5275 662.422 60.9827 663.503 62.4046C664.635 62.4054 665.768 62.4048 666.902 62.4043C667.275 60.8938 668.001 59.7635 669.815 59.8458C671.079 59.9018 672.34 59.9885 673.602 60.0605C680.858 59.3924 688.112 59.4536 695.363 60.1281C695.966 60.0333 696.575 59.8332 697.173 59.8637C699.384 59.9771 698.337 61.298 697.983 62.4965C699.28 62.502 700.531 62.4152 701.763 62.5337C703.754 62.7261 702.486 61.3795 702.79 60.7688C703.266 59.8148 704.511 59.9933 705.524 60.2376C706.078 59.6412 706.579 58.9834 707.196 58.4633C709.2 56.7771 710.296 57.2377 711.326 60.1447C711.328 60.1447 711.446 60.1532 711.446 60.1532C711.876 59.019 712.009 57.5116 713.644 57.5265C719.001 57.5797 724.391 57.1997 729.667 58.5273C729.82 58.5666 729.923 58.799 730.045 58.9622C732.366 59.0813 734.685 59.1937 737.005 59.3208C739.528 59.4595 742.119 59.1091 744.5 60.3285C744.502 60.3285 744.904 60.0675 744.904 60.0675L745.279 60.3677C747.325 60.2044 747.519 60.4439 747.114 62.8555C748.033 62.3927 748.946 62.4099 749.858 62.879C750.152 60.0549 750.313 59.8342 752.399 59.7217C753.635 59.6549 754.885 59.6148 755.983 60.3648C755.984 60.3648 756.254 60.3633 756.254 60.3633C757.932 59.3103 759.607 59.0934 761.278 60.3844C761.279 60.3858 761.601 60.1832 761.601 60.1832L761.892 60.427C762.714 60.3998 763.535 60.374 764.355 60.3481C765.727 59.4752 767.096 58.5969 768.473 57.7307C769.457 57.1122 770.431 57.1816 771.385 57.8177C772.093 57.414 772.775 57.4662 773.437 57.9263C775.283 57.9047 777.389 56.8083 778.663 59.1563C779.316 59.3244 779.832 59.6546 780.082 60.301C780.807 60.3214 781.533 60.3431 782.258 60.3649L782.172 60.4298C784.154 58.7435 786.479 59.3946 788.72 59.4693C788.794 60.7057 788.867 61.942 788.941 63.1783C789.358 63.2067 789.751 63.3137 790.122 63.502C790.945 63.4028 791.768 63.3049 792.591 63.207C792.778 62.3225 792.402 61.1009 793.91 61.0046C794.613 60.8275 795.318 60.6492 796.023 60.4735C796.094 60.0431 796.164 59.6114 796.234 59.1797C798.837 57.4747 799.265 57.4884 799.769 59.5706C800.018 60.5983 799.958 61.6834 800.967 62.353C802.352 62.3748 803.2 61.2157 804.379 60.774C805.646 60.2967 807.07 60.1653 807.85 61.3713C808.854 62.9235 810.265 62.9148 811.737 62.949C814.683 63.0161 817.63 63.0338 820.576 63.0729C822.709 59.1605 822.745 59.1594 827.171 59.5967C826.791 60.4831 826.411 61.3695 826.033 62.2559C825.981 62.605 825.995 62.9517 826.077 63.2961C826.83 63.2992 827.583 63.3024 828.338 63.3056C828.853 63.2864 829.367 63.2686 829.883 63.2495L829.765 63.3156C830.187 63.3254 830.595 63.4045 830.989 63.5541C831.351 63.3623 831.735 63.2893 832.143 63.3337C832.463 62.6777 832.822 62.0658 833.657 61.992C834.035 62.0136 834.576 62.2066 834.763 62.0287C836.154 60.7092 837.216 61.0323 838.195 62.5191C838.408 62.844 838.838 63.0285 839.171 63.2779L839.587 63.0344L839.966 63.3279C840.33 63.0455 840.713 63.0137 841.113 63.2248C841.69 62.4419 842.268 61.6603 842.844 60.8761C844.112 59.156 844.11 59.1547 846.625 60.6613L846.524 60.5982C847.693 61.0431 848.862 61.432 850.028 60.6329C850.293 59.814 850.892 59.3793 851.737 59.3908C852.945 59.4079 854.151 59.5277 855.358 59.6034C855.778 59.5959 856.199 59.5896 856.619 59.582C858.519 59.3994 860.541 58.6133 861.984 60.6367C863.539 61.9112 865.253 60.6918 866.876 60.9106L867.246 60.6202L867.667 60.8286C870.153 58.7484 873.014 59.3485 875.836 59.6924L876.233 59.4007L876.687 59.5919C877.615 59.1225 878.542 58.6544 879.468 58.1836C879.892 57.2441 880.917 56.8831 881.425 57.5052C882.452 58.7655 883.984 58.8546 885.176 59.6477L885.551 59.6373C886.337 58.1832 887.108 56.9505 889.174 56.9872C891.624 57.0295 893.942 57.3752 896.181 58.3273C896.396 57.6576 896.763 57.1845 897.596 57.316C898.024 57.2724 898.453 57.2276 898.882 57.1841C899.33 57.186 899.779 57.1892 900.227 57.191C900.235 58.0684 900.245 58.9445 900.255 59.8218C901.015 59.8157 901.775 59.8083 902.535 59.8022C903.013 59.3748 903.492 58.9475 903.969 58.5202C903.969 58.5202 903.94 58.5361 903.941 58.5361C903.994 58.1629 904.04 57.7884 904.081 57.4126C906.622 56.8526 909.163 56.7753 911.702 57.426C911.631 58.2337 911.561 59.0428 911.487 59.8492C913.727 60.0066 915.971 60.1654 918.214 60.3228C918.496 60.196 918.783 60.0812 919.074 59.9785C919.51 60.067 919.722 60.3239 919.731 60.7333C920.347 60.7412 920.963 60.7491 921.577 60.757C922.031 59.7936 922.235 58.4718 923.888 59.2454L923.839 59.2119C924.75 58.385 925.439 56.8839 926.859 57.2339C929.202 57.8118 931.245 59.2884 933.923 57.6116C934.926 56.9838 936.442 58.7089 937.31 59.9473C939.861 59.946 942.412 59.9448 944.962 59.9449L945.272 59.6542L945.643 59.8584C949.369 57.7354 949.805 57.8292 951.488 61.1883C952.236 61.1501 952.984 61.1106 953.731 61.0724C954.159 60.6796 954.56 60.2466 955.033 59.9206C957.161 58.4549 957.217 58.4538 958.034 60.9639C960.499 61.0917 962.965 61.2193 965.431 61.3471L965.87 61.0529L966.349 61.2763C966.808 60.8769 967.401 60.5594 967.702 60.0633C968.688 58.4408 969.926 58.502 971.298 59.4104C972.136 59.966 972.897 60.6345 973.693 61.2512L974.132 61.1597L974.399 61.5208C975.424 61.8745 976.448 62.2268 977.474 62.5805C977.477 62.5818 977.625 62.5424 977.625 62.5424C978.411 61.4164 979.49 61.0943 980.794 61.3878C981.641 60.902 982.488 60.9069 983.333 61.3958C984.573 61.3704 985.812 61.3449 987.05 61.3195C987.582 60.5164 988.204 59.755 988.614 58.894C989.406 57.2307 990.245 57.5742 991.192 58.6635C992.848 58.7492 994.505 58.8335 996.16 58.9192C996.66 58.6693 997.088 58.7444 997.431 59.1992C998.594 59.4401 998.587 60.4988 998.934 61.3109C999.71 61.3755 1000.49 61.4414 1001.26 61.506C1006.38 60.7249 1011.5 60.7864 1016.62 61.5347C1018.06 61.1714 1019.06 61.5303 1019.49 63.1175C1019.71 63.9104 1020.17 64.6323 1020.53 65.3872C1021.36 65.4027 1022.19 65.4182 1023.01 65.435C1023.44 65.4368 1023.86 65.4386 1024.28 65.439C1024.71 65.4355 1025.14 65.432 1025.57 65.4285C1027.54 64.7181 1029.51 64.797 1031.49 65.356C1032.14 64.7067 1032.75 64.6627 1033.34 65.4105C1034.94 65.3706 1036.55 65.3293 1038.15 65.2894C1038.38 64.661 1038.78 64.2001 1039.45 63.9989C1039.79 62.991 1040.56 62.7929 1041.29 63.388C1041.91 63.8906 1042.27 64.7214 1042.74 65.4074C1042.74 65.4074 1043.14 65.2011 1043.14 65.2011L1043.48 65.4959C1045.19 65.1164 1046.91 65.1196 1048.62 65.5108L1048.98 65.2137L1049.39 65.4274C1050.35 64.4315 1050.91 62.8218 1052.76 63.1923C1054.91 63.6226 1057.19 64.7536 1059.16 64.3499C1061.27 63.9174 1063.19 64.1442 1065.2 64.254C1065.89 63.893 1066.72 63.6537 1067.23 63.1145C1068.47 61.8011 1069.42 61.7744 1070.73 63.1013C1071.71 64.0948 1073.04 62.7644 1074.22 63.1014L1074.53 62.7987L1074.92 62.979C1076.21 60.3231 1076.21 60.323 1079.06 60.759C1079.19 61.1209 1079.37 61.4603 1079.59 61.7773C1082.07 61.3931 1084.55 61.2635 1087.02 61.8966C1095.99 61.425 1104.95 61.7628 1113.91 61.9792C1115.71 62.6228 1117.77 62.0848 1119.48 63.1907C1119.48 63.1907 1119.9 62.9524 1119.9 62.9524L1120.29 63.2527C1121.55 63.2367 1122.81 63.2207 1124.07 63.206C1125.85 61.9628 1127.65 61.9397 1129.45 63.194C1129.45 63.1927 1129.42 63.1259 1129.42 63.1259C1131.86 63.1108 1131.89 63.1176 1132.27 65.7752C1132.77 65.4053 1133.27 65.3448 1133.78 65.7576C1133.59 64.3275 1133.84 63.2644 1135.61 63.1413C1138.2 62.9615 1138.64 63.218 1139.62 65.8448C1140.37 65.8413 1141.12 65.8392 1141.87 65.8357C1141.86 64.2863 1142.08 62.8259 1144.12 62.9838C1147.25 63.225 1150.32 63.2232 1153.24 61.8715C1153.47 61.3058 1153.59 60.6264 1153.99 60.2254C1154.98 59.2295 1155.81 59.429 1156.22 60.8334C1156.66 61.2312 1157.09 61.6291 1157.53 62.0256C1160.06 62.0829 1162.58 62.1402 1165.11 62.1962L1165.54 61.894L1166.02 62.112C1167.03 61.391 1168.04 61.2978 1169.02 62.1433C1177.1 61.8614 1185.18 61.5647 1193.26 62.2508C1196.94 61.5729 1200.61 61.6297 1204.29 62.2692C1206.78 60.933 1209.55 62.042 1212.11 61.3822C1212.31 61.7137 1212.53 62.0253 1212.78 62.317C1225.28 62.299 1237.78 62.2717 1250.29 62.279C1251.33 62.2794 1252.38 62.5172 1253.43 62.6442C1254.23 62.5823 1255.03 62.519 1255.83 62.457C1257.05 59.6981 1257.69 59.4701 1259.9 61.0675C1260.29 61.1998 1260.79 61.5525 1261.05 61.4256C1263.17 60.4132 1264.81 61.3588 1266.4 62.5936L1266.98 62.4453C1266.98 62.4453 1267.51 62.7129 1267.51 62.7116C1270.49 62.7201 1273.48 62.7287 1276.45 62.7372C1283.16 62.0561 1289.86 62.375 1296.57 62.6513C1296.74 62.2974 1296.93 61.9528 1297.15 61.6204C1301.39 61.9582 1305.6 61.992 1309.87 61.5326C1314.28 61.0552 1318.79 61.1369 1323.26 61.1824C1334.54 61.2979 1345.83 61.5294 1357.11 61.7156L1357.55 61.4242L1358.03 61.6368C1358.28 61.3339 1358.54 61.0269 1358.79 60.7173C1359.64 61.0276 1360.48 61.3365 1361.33 61.6467L1361.8 61.4341L1362.21 61.7344C1368.16 61.8035 1374.11 60.8779 1380.05 61.7443L1380.04 61.7696C1381.54 60.7799 1383.05 60.8462 1384.56 61.7339C1387.38 61.2138 1390.16 61.1308 1392.95 61.8866C1395.51 61.88 1398.07 61.8735 1400.64 61.8683L1400.98 61.579L1401.35 61.806C1405.16 60.0233 1409.18 60.5216 1413.15 60.8064C1414.27 60.8857 1414.72 61.9076 1415.06 62.8864C1415.8 63.0108 1416.53 63.1339 1417.26 63.257C1418.54 62.6864 1419.81 62.6678 1421.1 63.2252C1423.18 63.102 1423.34 63.3066 1423.01 65.7106C1423.01 65.7119 1423.36 65.5307 1423.36 65.5307L1423.64 65.8053C1424.03 65.5762 1424.4 65.5604 1424.78 65.742C1425.02 63.1017 1425.04 63.0964 1427.5 63.2188C1427.93 63.2366 1428.34 63.2544 1428.77 63.2722C1430.16 63.2087 1431.56 63.1239 1432.94 63.0884C1434.69 63.0437 1435.27 64.1502 1435.49 65.5978C1436.63 65.6693 1437.77 65.7408 1438.92 65.8123C1440.12 64.8907 1440.65 63.0355 1442.57 63.0996C1443.49 60.2888 1445.75 60.6117 1447.99 60.8398L1448.27 60.5276L1448.66 60.6812C1450.68 59.1191 1450.95 59.1228 1453.59 60.734L1454.02 60.5398L1454.39 60.8414C1459.92 59.4207 1465.43 60.2612 1470.95 60.8218L1470.9 60.8603C1472.81 59.7497 1474.7 59.8923 1476.62 60.8484C1477.75 60.3918 1478.87 60.3658 1479.98 60.9358C1481.66 60.9242 1483.34 60.9127 1485.02 60.9011C1488.19 57.7117 1489.98 57.3606 1493.92 59.1692C1494.05 59.2271 1494.08 59.4859 1494.16 59.6742C1494.56 59.8025 1494.96 59.8189 1495.37 59.7167C1495.58 60.1082 1495.79 60.4984 1496.01 60.89C1496.69 60.4675 1497.33 60.5102 1497.91 61.0887C1499.19 61.0701 1500.47 61.0529 1501.75 61.0342C1503.89 60.3406 1506.01 60.2775 1508.14 61.0464C1512.93 61.0986 1517.77 60.555 1522.4 62.3132L1522.31 62.2488C1525.61 62.2734 1528.92 62.3193 1532.21 62.3145C1534.31 62.3127 1536.36 62.3867 1538.14 63.6648C1538.14 63.6662 1538.52 63.4357 1538.52 63.4357L1538.85 63.7252C1540.56 63.371 1542.28 63.3676 1543.99 63.7322L1544.3 63.4695L1544.63 63.6802C1547.6 61.3754 1550.97 62.3562 1554.24 62.5353C1556.14 61.822 1558.07 61.9155 1559.99 62.4409C1560.64 61.4983 1561.61 61.077 1562.69 61.0896C1565.42 61.1211 1568.15 61.2246 1570.88 61.2988C1573.86 60.634 1576.83 60.6811 1579.8 61.3123C1581.92 61.2999 1584.05 61.2942 1586.17 61.2711C1587.47 61.2566 1588.59 61.4547 1589.57 62.5481C1590.41 63.4997 1591.52 62.699 1592.51 62.4419C1592.51 62.4405 1592.37 62.5426 1592.37 62.5426C1594.49 60.9222 1595.03 60.8392 1596.51 62.0974C1597.15 62.6321 1597.66 63.3009 1598.23 63.9074C1599.54 63.3862 1600.86 63.3624 1602.18 63.9039C1604.54 60.4178 1605.89 60.2595 1608.81 63.1172C1609.12 63.4092 1609.44 63.6785 1609.75 63.9572C1610.69 63.4691 1611.62 63.4837 1612.55 63.9503C1613.41 63.0579 1614.39 62.4834 1615.68 62.7422C1616.97 62.1823 1618.25 62.2036 1619.51 62.8756C1620.97 62.7231 1622.35 62.8595 1623.47 63.9483C1624.29 63.9957 1625.1 64.0418 1625.91 64.0892C1626.76 63.6088 1627.6 63.6137 1628.45 64.0946C1630.16 63.7324 1631.88 63.765 1633.59 64.1336C1635.5 63.4509 1637.42 63.4858 1639.35 64.1112C1640.15 63.8853 1640.94 63.4739 1641.74 63.4626C1658.02 63.2338 1674.31 63.0464 1690.6 62.8697C1691.21 62.863 1691.84 63.039 1692.46 63.1296C1695.65 62.387 1698.84 62.4578 1702.03 63.1125C1703.76 61.9398 1705.73 62.4481 1707.6 62.436C1729.9 62.2872 1752.19 62.1584 1774.48 62.0857C1778.28 62.0724 1782.11 61.5472 1785.91 62.2432C1788.05 61.5802 1790.18 61.5025 1792.3 62.2661C1794.31 62.3025 1796.32 62.3537 1798.34 62.3688C1799.92 62.3809 1800.26 63.505 1800.5 64.738C1805.29 64.2142 1810.06 64.1836 1814.85 64.8384C1817.73 64.3092 1820.42 63.5006 1822.73 61.4543C1823.62 60.6567 1825.13 60.5964 1825.71 62.2975C1826.67 62.7362 1827.64 63.1737 1828.6 63.611C1830.81 63.0257 1833.01 63.0189 1835.21 63.6495C1836.2 61.9443 1837.4 60.5921 1839.66 60.9003C1840.9 61.0695 1842.17 61.0935 1843.41 61.2027C1845.67 61.3989 1846.38 60.8139 1846.53 58.6012C1846.65 56.667 1845.96 55.8734 1844.08 55.8841C1843.06 55.8892 1842.03 56.0129 1841 56.0112C1840.95 56.011 1840.73 55.2194 1840.87 54.9853C1841.48 54.0692 1842.36 53.5622 1843.48 53.5323C1844.11 52.3056 1843.74 51.128 1843.32 49.9543L1842.93 49.9979L1842.51 49.8935C1842.04 49.5035 1841.57 49.1149 1841.1 48.7249C1842.2 47.8895 1843.33 47.1316 1844.79 47.0991C1845.53 46.0222 1846.4 44.9898 1845.96 43.5427C1843.79 43.1708 1842.26 45.5898 1840.02 44.959C1839.62 44.8467 1839.1 44.7258 1838.91 44.4303C1838.55 43.8421 1838.75 43.3283 1839.5 43.0887C1840.91 42.6294 1842.26 42.0471 1843.31 40.8901C1844.18 39.9231 1845.02 39.0346 1844.56 37.5514C1844.15 36.2003 1844.89 35.5847 1846.16 35.5381C1847.41 35.4914 1848.68 35.5514 1849.94 35.5647C1850.69 35.0812 1851.43 34.5963 1852.18 34.1114C1852.19 33.4448 1852.21 32.7795 1852.24 32.1129C1851.56 31.8381 1851.21 31.3554 1851.35 30.5733C1850.98 30.1664 1850.95 29.7409 1851.28 29.2956C1850.75 28.4827 1850.22 27.6697 1849.69 26.8568L1849.38 27.0835L1849.06 26.8529C1848.59 27.5203 1848.16 28.2291 1847.62 28.8415C1847.25 29.272 1846.61 29.9586 1846.27 29.8665C1843.56 29.1137 1840.64 28.9961 1837.1 27.2291C1840.29 26.5626 1842.44 26.0783 1844.61 25.6688C1846.09 25.3884 1846.67 24.4095 1846.84 23.0515L1846.46 23.1552L1846.24 22.8356C1845.94 22.7304 1845.46 22.6844 1845.41 22.5081C1845.23 21.8927 1845.68 21.6586 1846.2 21.5501C1846.63 20.2199 1847.65 20.1189 1848.81 20.3184C1849.41 19.8516 1850.05 19.7877 1850.73 20.1852C1851.32 19.6197 1851.91 19.0541 1852.51 18.4873C1852.51 18.486 1852.5 18.3353 1852.5 18.3353C1851.96 17.7704 1851.42 17.2067 1850.88 16.6418L1850.46 16.8334L1850.1 16.5452C1848.9 16.8281 1848.04 16.3725 1847.43 15.3392C1846.61 15.2985 1845.8 15.2564 1844.99 15.2156C1845.01 14.3397 1845.02 13.4651 1845.03 12.5891C1844.61 12.4727 1844.2 12.4683 1843.79 12.5785C1842.88 11.7601 1841.77 10.966 1843.44 9.83441C1843.61 9.03248 1844.15 8.70537 1844.94 8.68602C1845.39 7.68927 1846.29 7.39035 1847.24 7.17434C1847.63 6.03864 1847.8 4.91137 1847.05 3.82418C1847.04 3.82412 1846.65 4.02119 1846.65 4.02119L1846.32 3.73046C1845.06 3.96252 1844.09 3.45838 1843.28 2.54163C1842.27 2.92669 1841.27 2.9052 1840.28 2.49038C1838.78 3.65608 1837.35 4.84737 1837.05 6.91144C1837.01 7.14461 1836.42 7.29681 1836.09 7.48474L1836.07 7.49002C1834.51 8.51811 1832.66 8.36628 1830.94 8.74169C1830.82 7.91586 1830.72 7.08874 1830.6 6.26291C1826.23 6.26716 1821.85 6.27007 1817.47 6.27426C1817.4 6.61131 1817.29 6.92824 1817.11 7.22884L1816.95 7.19347C1817.37 7.68054 1817.76 8.16757 1818.18 8.65331C1818.6 8.73777 1819.03 8.82088 1819.47 8.90407C1820.28 8.91016 1821.11 8.91498 1821.93 8.9198C1822.79 8.90473 1823.64 8.8883 1824.49 8.87322C1825.48 8.61338 1826.27 8.90603 1826.85 9.75249C1825.54 10.0057 1824.87 11.6735 1823.3 11.3509L1823.34 11.3297C1821.32 12.5399 1819.04 12.2769 1816.85 12.4437C1816.41 12.4499 1815.99 12.4561 1815.56 12.4623C1814.75 12.5229 1813.93 12.5821 1813.12 12.6414C1812.88 13.2843 1812.39 13.645 1811.73 13.7715C1810.84 15.7064 1809.87 14.4157 1808.93 13.8437C1806.02 13.9075 1803.1 14.4952 1800.19 13.7482C1795.36 12.7519 1790.45 13.5112 1785.6 13.2228C1784.08 13.1324 1783.4 14.2935 1782.44 15.0575C1782.36 15.9318 1781.94 16.4234 1780.98 16.2394C1780.56 16.1962 1780.13 16.1531 1779.7 16.1099C1778.54 16.2091 1777.56 15.8582 1776.72 15.0441C1769.56 15.6112 1762.39 15.237 1755.21 15.1295C1754.84 15.1239 1754.48 14.7451 1754.11 14.5395C1753.13 13.2673 1752.54 11.3769 1750.28 12.1087C1749.44 12.6411 1748.58 12.7189 1747.72 12.1712C1746.81 12.3461 1746.29 11.8612 1745.92 11.1183C1744.18 11.467 1742.43 11.5449 1740.7 11.0336C1737.84 12.2296 1734.97 12.7362 1732.08 11.1347L1732.04 11.1305C1731.3 11.0567 1730.55 10.9815 1729.81 10.9077C1728.54 11.165 1727.55 10.7089 1726.77 9.73359C1726.24 10.098 1725.7 10.0825 1725.17 9.72822C1724.54 10.7696 1724.04 12.2221 1722.44 11.3901C1721.49 10.8967 1720.58 10.4409 1719.51 10.539C1718.93 10.5952 1718.23 10.7283 1717.79 11.0878C1713.55 14.5926 1713.58 14.6954 1710.72 14.8194L1710.78 14.7716C1709.7 15.7618 1708.64 15.432 1707.58 14.7461C1706.85 15.1138 1706.15 15.0694 1705.47 14.6026C1703.82 14.7036 1703.52 13.1464 1702.64 12.2973C1699.86 12.5083 1697.09 12.6953 1694.33 12.109C1690.66 13.0069 1687 13.0888 1683.35 12.064C1680.05 12.0302 1676.74 12.8523 1673.48 11.8772C1671.92 12.0026 1670.49 11.6512 1669.21 10.7444C1666.11 11.2581 1663 10.845 1659.9 10.7119" fill="#E93037"/>
</g>
</svg>
