<svg width="306" height="33" viewBox="0 0 306 33" fill="none" xmlns="http://www.w3.org/2000/svg">
<g clip-path="url(#clip0_55_2)">
<path d="M3.28714 19.766C5.83126 12.0366 11.9204 5.88776 19.5748 3.31737C19.9676 3.18338 20.4005 3.25233 20.7341 3.49688C20.9672 3.66598 21.1154 3.91444 21.1966 4.18631L21.203 4.18371L28.9178 27.554C29.0724 28.021 28.9513 28.5374 28.606 28.8847C28.3613 29.1331 28.0316 29.2658 27.6954 29.2658C27.5588 29.2658 27.4222 29.2437 27.2882 29.1995L4.2816 21.4558L4.14376 21.4089L4.14634 21.4024C3.8784 21.3205 3.63236 21.1709 3.4649 20.9355C3.22144 20.5972 3.15574 20.1615 3.28714 19.766ZM12.6277 21.5234L15.7579 22.5771C16.7111 22.1946 17.39 21.2568 17.39 20.1628C17.39 18.7189 16.2307 17.5612 14.8136 17.5612C13.3838 17.5612 12.2373 18.7189 12.2373 20.1628C12.2386 20.6623 12.3854 21.1254 12.6277 21.5234ZM23.8321 23.4148C23.8321 22.3351 22.9691 21.4636 21.8999 21.4636C20.8307 21.4636 19.9676 22.3351 19.9676 23.4148C19.9676 23.6307 20.0101 23.835 20.0746 24.0301L23.0026 25.0148C23.5036 24.6636 23.8321 24.0795 23.8321 23.4148ZM19.9676 17.5612C21.051 17.5612 21.9797 16.8743 22.3585 15.9117L21.315 12.7508C20.9222 12.5062 20.4623 12.3579 19.9676 12.3579C18.5377 12.3579 17.3913 13.5156 17.3913 14.9595C17.3913 16.3904 18.5377 17.5612 19.9676 17.5612ZM6.17649 19.3524L8.63818 20.181C10.7315 14.9804 14.8342 10.8373 19.9843 8.72352L19.1638 6.23638C13.2576 8.60645 8.52353 13.3869 6.17649 19.3524Z" fill="#FFBC11"/>
<path d="M45.2821 26V4.18182H50.5556V21.7173H59.6323V26H45.2821ZM67.3746 26H61.707L69.0685 4.18182H76.0891L83.4506 26H77.783L72.6587 9.67898H72.4883L67.3746 26ZM66.6183 17.4134H78.4648V21.419H66.6183V17.4134ZM92.245 26V4.18182H101.343C102.977 4.18182 104.344 4.41264 105.445 4.87429C106.553 5.33594 107.384 5.98224 107.938 6.81321C108.499 7.64418 108.779 8.60653 108.779 9.70028C108.779 10.5312 108.605 11.2734 108.257 11.9268C107.909 12.5732 107.43 13.1094 106.819 13.5355C106.208 13.9616 105.501 14.2599 104.699 14.4304V14.6435C105.58 14.6861 106.393 14.924 107.138 15.3572C107.891 15.7905 108.495 16.3942 108.95 17.1683C109.404 17.9354 109.631 18.8445 109.631 19.8956C109.631 21.0675 109.333 22.1151 108.737 23.0384C108.14 23.9545 107.277 24.679 106.148 25.2116C105.018 25.7372 103.648 26 102.036 26H92.245ZM97.5185 21.7493H100.778C101.922 21.7493 102.763 21.5327 103.303 21.0994C103.85 20.6662 104.124 20.0625 104.124 19.2884C104.124 18.7273 103.992 18.2443 103.729 17.8395C103.467 17.4276 103.094 17.1115 102.611 16.8913C102.128 16.6641 101.549 16.5504 100.874 16.5504H97.5185V21.7493ZM97.5185 13.152H100.438C101.013 13.152 101.524 13.0561 101.972 12.8643C102.419 12.6726 102.767 12.3956 103.016 12.0334C103.271 11.6712 103.399 11.2344 103.399 10.723C103.399 9.99148 103.14 9.41619 102.621 8.99716C102.103 8.57813 101.403 8.36861 100.523 8.36861H97.5185V13.152ZM132.76 15.0909C132.76 17.4915 132.298 19.5263 131.375 21.1953C130.452 22.8643 129.202 24.1321 127.625 24.9986C126.055 25.8651 124.294 26.2983 122.341 26.2983C120.381 26.2983 118.616 25.8615 117.046 24.9879C115.477 24.1143 114.23 22.8466 113.307 21.1847C112.391 19.5156 111.933 17.4844 111.933 15.0909C111.933 12.6903 112.391 10.6555 113.307 8.98651C114.23 7.31747 115.477 6.04972 117.046 5.18324C118.616 4.31676 120.381 3.88352 122.341 3.88352C124.294 3.88352 126.055 4.31676 127.625 5.18324C129.202 6.04972 130.452 7.31747 131.375 8.98651C132.298 10.6555 132.76 12.6903 132.76 15.0909ZM127.369 15.0909C127.369 13.6705 127.167 12.4702 126.762 11.4901C126.364 10.5099 125.789 9.76775 125.036 9.26349C124.29 8.75923 123.392 8.5071 122.341 8.5071C121.297 8.5071 120.398 8.75923 119.646 9.26349C118.893 9.76775 118.314 10.5099 117.909 11.4901C117.511 12.4702 117.312 13.6705 117.312 15.0909C117.312 16.5114 117.511 17.7116 117.909 18.6918C118.314 19.6719 118.893 20.4141 119.646 20.9183C120.398 21.4226 121.297 21.6747 122.341 21.6747C123.392 21.6747 124.29 21.4226 125.036 20.9183C125.789 20.4141 126.364 19.6719 126.762 18.6918C127.167 17.7116 127.369 16.5114 127.369 15.0909ZM154.408 4.18182V26H149.933L141.251 13.4077H141.112V26H135.839V4.18182H140.377L148.964 16.7528H149.145V4.18182H154.408ZM176.292 4.18182V26H171.818L163.135 13.4077H162.997V26H157.724V4.18182H162.262L170.849 16.7528H171.03V4.18182H176.292ZM179.608 26V4.18182H194.821V8.46449H184.882V12.9389H194.044V17.2322H184.882V21.7173H194.821V26H179.608ZM204.569 26V4.18182H213.582C215.216 4.18182 216.625 4.50142 217.811 5.14062C219.005 5.77273 219.924 6.65696 220.571 7.79332C221.217 8.92259 221.54 10.2365 221.54 11.7351C221.54 13.2408 221.21 14.5582 220.549 15.6875C219.896 16.8097 218.962 17.6797 217.748 18.2976C216.533 18.9155 215.091 19.2244 213.422 19.2244H207.861V15.0696H212.442C213.238 15.0696 213.902 14.9311 214.434 14.6541C214.974 14.3771 215.382 13.9901 215.659 13.4929C215.936 12.9886 216.075 12.4027 216.075 11.7351C216.075 11.0604 215.936 10.478 215.659 9.98793C215.382 9.49077 214.974 9.10724 214.434 8.83736C213.895 8.56747 213.23 8.43253 212.442 8.43253H209.843V26H204.569ZM229.413 4.18182V26H224.14V4.18182H229.413ZM232.649 26V22.9957L243.249 8.46449H232.66V4.18182H249.918V7.18608L239.318 21.7173H249.907V26H232.649ZM253.069 26V22.9957L263.669 8.46449H253.08V4.18182H270.338V7.18608L259.738 21.7173H270.327V26H253.069ZM278.283 26H272.615L279.977 4.18182H286.997L294.359 26H288.691L283.567 9.67898H283.396L278.283 26ZM277.526 17.4134H289.373V21.419H277.526V17.4134Z" fill="white"/>
</g>
<defs>
<clipPath id="clip0_55_2">
<rect width="306" height="33" fill="white"/>
</clipPath>
</defs>
</svg>
