<svg width="322" height="43" viewBox="0 0 322 43" fill="none" xmlns="http://www.w3.org/2000/svg">
<path d="M4.28644 26.1814C7.60445 16.1987 15.5458 8.2573 25.5284 4.93759C26.0408 4.76455 26.6053 4.85359 27.0404 5.16943C27.3445 5.38783 27.5377 5.70872 27.6435 6.05984L27.6519 6.05648L37.7135 36.2397C37.9151 36.8428 37.7572 37.5098 37.3069 37.9583C36.9877 38.2792 36.5576 38.4506 36.1192 38.4506C35.9411 38.4506 35.763 38.422 35.5883 38.3649L5.5834 28.3638L5.40364 28.3033L5.40701 28.2949C5.05756 28.189 4.73668 27.9958 4.51828 27.6917C4.20076 27.2549 4.11508 26.6921 4.28644 26.1814ZM16.4681 28.4511L20.5506 29.8119C21.7938 29.318 22.6791 28.1067 22.6791 26.6938C22.6791 24.829 21.1671 23.3338 19.3191 23.3338C17.4543 23.3338 15.9591 24.829 15.9591 26.6938C15.9608 27.3389 16.1523 27.937 16.4681 28.4511ZM31.0808 30.8939C31.0808 29.4994 29.9552 28.3738 28.5608 28.3738C27.1664 28.3738 26.0408 29.4994 26.0408 30.8939C26.0408 31.1727 26.0963 31.4365 26.1803 31.6885L29.9989 32.9603C30.6524 32.5067 31.0808 31.7523 31.0808 30.8939ZM26.0408 23.3338C27.4537 23.3338 28.665 22.4467 29.1589 21.2035L27.7981 17.1211C27.2857 16.8052 26.6859 16.6137 26.0408 16.6137C24.176 16.6137 22.6808 18.1089 22.6808 19.9737C22.6808 21.8218 24.176 23.3338 26.0408 23.3338ZM8.05469 25.6472L11.2652 26.7173C13.9952 20.0006 19.346 14.6498 26.0627 11.9197L24.9925 8.70755C17.2897 11.7685 11.1157 17.9426 8.05469 25.6472Z" fill="white"/>
<path d="M54.56 34.6504H60.032V27.7704H64.768C69.632 27.7704 73.12 24.6664 73.12 20.2184C73.12 15.7704 69.632 12.6664 64.768 12.6664H54.56V34.6504ZM60.032 22.7784V17.6584H64.288C66.176 17.6584 67.488 18.6824 67.488 20.2184C67.488 21.7544 66.176 22.7784 64.288 22.7784H60.032ZM76.935 34.6504H82.407V12.6664H76.935V34.6504ZM86.4728 34.6504H105.097V29.7544H93.9928L104.937 16.7624V12.6664H86.6968V17.5624H97.4488L86.4408 30.5544L86.4728 34.6504ZM108.098 34.6504H126.722V29.7544H115.618L126.562 16.7624V12.6664H108.322V17.5624H119.074L108.066 30.5544L108.098 34.6504ZM146.427 34.6504H152.571L143.867 12.6664H137.723L129.019 34.6504H135.163L136.507 31.2904H145.083L146.427 34.6504ZM138.139 27.1624L140.795 20.4104L143.451 27.1624H138.139ZM155.935 34.6504H161.407V27.7704H166.143C171.007 27.7704 174.495 24.6664 174.495 20.2184C174.495 15.7704 171.007 12.6664 166.143 12.6664H155.935V34.6504ZM161.407 22.7784V17.6584H165.663C167.551 17.6584 168.863 18.6824 168.863 20.2184C168.863 21.7544 167.551 22.7784 165.663 22.7784H161.407ZM183.782 29.7544V12.6664H178.31V34.6504H194.374V29.7544H183.782ZM213.677 34.6504H219.821L211.117 12.6664H204.973L196.269 34.6504H202.413L203.757 31.2904H212.333L213.677 34.6504ZM205.389 27.1624L208.045 20.4104L210.701 27.1624H205.389ZM223.185 34.6504H228.657V21.6584L238.257 34.6504H243.697V12.6664H238.257V25.6584L228.657 12.6664H223.185V34.6504ZM266.153 17.5624V12.6664H248.841V34.6504H266.153V29.7544H254.313V25.8824H265.065V20.9864H254.313V17.5624H266.153ZM275.682 34.6504H281.154V17.5624H287.842V12.6664H269.026V17.5624H275.682V34.6504ZM320.729 12.6664H314.393L309.657 19.2264L304.921 12.6664H298.489L306.425 23.7064L298.489 34.6504H304.825L309.561 28.0904L314.297 34.6504H320.729L312.793 23.6104L320.729 12.6664Z" fill="white"/>
</svg>
