<svg width="36" height="23" viewBox="0 0 36 23" fill="none" xmlns="http://www.w3.org/2000/svg">
<path d="M20.3945 0.959961H35.4915V4.55991H24.4762V9.719H35.2V13.2175H24.4762V18.44H35.4915V22.04H20.3945V0.959961Z" fill="#0D0D0D"/>
<path d="M13.7865 1.28826H13.4865V1.58826V13.9971C13.4865 17.039 11.4462 19.0429 8.82129 19.0429C7.48332 19.0429 6.32225 18.5494 5.49489 17.6828C4.66717 16.8159 4.15608 15.5569 4.15608 13.9971V1.58826V1.28826H3.85608H0.8125H0.5125V1.58826V14.1664C0.5125 19.0722 3.96396 22.3399 8.46322 22.3399C10.4007 22.3399 12.1507 21.6821 13.5104 20.5196V21.6892V21.9892H13.8104H16.8181H17.1181V21.6892V1.58826V1.28826H16.8181H13.7865Z" fill="#0D0D0D" stroke="#0D0D0D" stroke-width="0.6"/>
</svg>
