<svg width="36" height="21" viewBox="0 0 36 21" fill="none" xmlns="http://www.w3.org/2000/svg">
<path d="M33.9624 5.34847C32.4285 2.48841 29.4272 0.70772 26.1634 0.718678H1.46889C1.30212 0.719359 1.13924 0.769387 1.00054 0.862529C0.861838 0.95567 0.75345 1.08781 0.688882 1.24248C0.625257 1.39615 0.608687 1.56543 0.641292 1.72864C0.673898 1.89185 0.754196 2.04155 0.871901 2.15857L6.25135 7.52804C6.72633 8.00362 7.37343 8.2699 8.04668 8.2699H25.4553C26.6961 8.25675 27.7103 9.24517 27.7234 10.4758C27.7365 11.7064 26.7419 12.7145 25.501 12.7266H13.4991C13.3322 12.7266 13.1691 12.7761 13.0299 12.8689C12.8908 12.9617 12.782 13.0936 12.7169 13.2482C12.6527 13.402 12.6357 13.5717 12.6681 13.7353C12.7005 13.899 12.7809 14.0491 12.8989 14.1665L18.2816 19.5403C18.7595 20.0156 19.4048 20.2819 20.0769 20.2811H25.5054C32.568 20.2811 37.9082 12.7857 33.9624 5.34519" fill="#0D0D0D"/>
</svg>
